<?xml version="1.0" encoding="utf-8"?>
<!-- Generator: Adobe Illustrator 21.0.0, SVG Export Plug-In . SVG Version: 6.00 Build 0)  -->
<svg version="1.0" id="Layer_29" xmlns="http://www.w3.org/2000/svg" xmlns:xlink="http://www.w3.org/1999/xlink" x="0px" y="0px"
	 viewBox="0 0 36 36" style="enable-background:new 0 0 36 36;" xml:space="preserve">
<style type="text/css">
	.st0{fill:#FFFFFF;stroke:#000000;stroke-miterlimit:10;}
	.st1{fill:#94C382;stroke:#000000;stroke-miterlimit:10;}
	.st2{fill:none;stroke:#87AF75;stroke-width:0.9982;stroke-miterlimit:10;}
	.st3{fill:#4786C8;stroke:#000000;stroke-linejoin:round;stroke-miterlimit:10;}
	.st4{fill:#4786C8;stroke:#000000;stroke-linecap:round;stroke-linejoin:round;stroke-miterlimit:10;}
	.st5{fill:none;stroke:#FFFFFF;stroke-linecap:round;stroke-miterlimit:10;}
	.st6{fill:none;stroke:#000000;stroke-miterlimit:10;}
	.st7{fill:#E5E5E5;}
	.st8{fill:#A2D38D;}
	.st9{fill:#FFFFFF;stroke:#000000;stroke-linecap:round;stroke-miterlimit:10;}
	.st10{fill:none;stroke:#FFFFFF;stroke-linecap:round;stroke-linejoin:round;stroke-miterlimit:10;}
</style>
<g>
	<g>
		<g>
			<polyline class="st0" points="5.8,4.2 11.7,0.5 24.8,0.5 30.2,4.3 18,29 5.8,4.2 			"/>
			<path class="st1" d="M22.4,8.4l4.4-4.1h3.8c2.5,0,4.8,2,4.8,4.5v9.3l0,14.7c0,1.5-1.2,2.7-2.7,2.7H3.6c-1.5,0-3.1-1.2-3.1-2.7
				l0-14.7l0-9.8c0-2.5,2.3-4.5,4.8-4.5l3.8-0.2l4.4,4.5L18,4.5L22.4,8.4z"/>
			<g>
				<line class="st2" x1="1.1" y1="10.8" x2="34.9" y2="10.8"/>
				<line class="st2" x1="1.1" y1="16.9" x2="34.9" y2="16.9"/>
				<line class="st2" x1="1.1" y1="23" x2="34.9" y2="23"/>
				<line class="st2" x1="1.1" y1="29.1" x2="34.9" y2="29.1"/>
			</g>
			<polygon class="st3" points="15.1,7.1 16.8,10.5 19.4,10.5 20.9,7 18,4.5 			"/>
			<polyline class="st4" points="19.4,10.5 21.7,28 18.2,32.7 17.8,32.7 14.3,28 16.9,10.5 19.4,10.5 			"/>
			<path class="st5" d="M2.7,9.4V8.3c0-1.6,1.3-2.8,2.8-2.8h0.7"/>
		</g>
		<polyline class="st6" points="13.3,8.5 17.7,4.7 12,0.4 		"/>
		<polyline class="st6" points="22.8,8.8 18.3,4.7 24.3,0.4 		"/>
		<polygon class="st7" points="13.6,1.1 18.1,2.9 22.6,1 18.1,4.4 		"/>
	</g>
	<polygon class="st8" points="32.9,24.8 28.9,26.8 24.6,24.8 24.6,17.7 32.9,17.7 	"/>
	<line class="st9" x1="32.6" y1="17.7" x2="25.1" y2="17.7"/>
	<polygon class="st8" points="11.4,24.8 7.4,26.8 3.1,24.8 3.1,17.7 11.4,17.7 	"/>
	<line class="st9" x1="11.1" y1="17.7" x2="3.6" y2="17.7"/>
	<line class="st10" x1="16.1" y1="27.1" x2="17.4" y2="17.4"/>
	<line class="st10" x1="17.9" y1="12.9" x2="17.7" y2="15"/>
	<line class="st10" x1="16.9" y1="7.4" x2="17.6" y2="9"/>
</g>
</svg>
