<svg width="2450" height="64" viewBox="0 0 2450 64" fill="none" xmlns="http://www.w3.org/2000/svg">
<g clip-path="url(#clip0)">
<rect width="2450" height="64" fill="white"/>
<rect width="2450" height="64" fill="#7D2AEB"/>
<path d="M942.794 39.972V20.456C944.81 20.3627 946.695 20.316 948.45 20.316C950.615 20.316 952.23 20.7454 953.294 21.604C954.358 22.4627 954.89 23.648 954.89 25.16C954.89 27.2694 953.956 28.7534 952.09 29.612V29.668C953.154 29.948 953.994 30.48 954.61 31.264C955.226 32.0294 955.534 33.0187 955.534 34.232C955.534 36.136 954.88 37.592 953.574 38.6C952.267 39.608 950.494 40.112 948.254 40.112C946.014 40.112 944.194 40.0654 942.794 39.972ZM948.674 31.572H946.238V36.752C947.115 36.8454 947.871 36.892 948.506 36.892C950.895 36.892 952.09 35.9494 952.09 34.064C952.09 33.2427 951.791 32.6267 951.194 32.216C950.596 31.7867 949.756 31.572 948.674 31.572ZM948.394 23.536C947.572 23.536 946.854 23.564 946.238 23.62V28.576H948.562C949.439 28.576 950.139 28.352 950.662 27.904C951.203 27.456 951.474 26.812 951.474 25.972C951.474 25.188 951.203 24.5907 950.662 24.18C950.12 23.7507 949.364 23.536 948.394 23.536Z" fill="white"/>
<path d="M963.967 40H959.431V27.4H962.651V30.844H964.219C966.104 30.844 967.495 31.236 968.391 32.02C969.306 32.804 969.763 33.868 969.763 35.212C969.763 36.6494 969.278 37.8067 968.307 38.684C967.336 39.5614 965.89 40 963.967 40ZM974.775 40H971.555V27.4H974.775V40ZM963.939 33.42H962.651V37.2H963.911C965.535 37.2 966.347 36.5747 966.347 35.324C966.347 34.0547 965.544 33.42 963.939 33.42Z" fill="white"/>
<path d="M987.733 32.02L981.853 40H978.633V27.4H981.853V35.38L987.733 27.4H990.953V40H987.733V32.02Z" fill="white"/>
<path d="M998.047 40H994.827V27.4H1003.28V30.424H998.047V40Z" fill="white"/>
<path d="M1008.8 45.6H1005.58V27.4H1008.8V28.604C1009.21 28.156 1009.77 27.792 1010.48 27.512C1011.19 27.232 1011.93 27.092 1012.69 27.092C1014.43 27.092 1015.81 27.6894 1016.84 28.884C1017.88 30.0974 1018.4 31.6374 1018.4 33.504C1018.4 35.464 1017.79 37.088 1016.56 38.376C1015.32 39.664 1013.72 40.308 1011.74 40.308C1010.47 40.308 1009.49 40.1027 1008.8 39.692V45.6ZM1011.68 30.116C1010.56 30.116 1009.6 30.5734 1008.8 31.488V36.584C1009.56 37.0694 1010.45 37.312 1011.46 37.312C1012.52 37.312 1013.37 36.9667 1014.01 36.276C1014.66 35.5854 1014.99 34.6894 1014.99 33.588C1014.99 32.5427 1014.69 31.7027 1014.09 31.068C1013.51 30.4334 1012.71 30.116 1011.68 30.116Z" fill="white"/>
<path d="M1026.01 40H1021.47V27.4H1024.69V30.844H1026.26C1028.15 30.844 1029.54 31.236 1030.43 32.02C1031.35 32.804 1031.8 33.868 1031.8 35.212C1031.8 36.6494 1031.32 37.8067 1030.35 38.684C1029.38 39.5614 1027.93 40 1026.01 40ZM1036.82 40H1033.6V27.4H1036.82V40ZM1025.98 33.42H1024.69V37.2H1025.95C1027.58 37.2 1028.39 36.5747 1028.39 35.324C1028.39 34.0547 1027.59 33.42 1025.98 33.42Z" fill="white"/>
<path d="M1040.67 40V27.4C1040.84 27.4 1041.55 27.3814 1042.8 27.344C1044.07 27.288 1045.01 27.26 1045.63 27.26C1049.44 27.26 1051.34 28.3614 1051.34 30.564C1051.34 31.2734 1051.12 31.8987 1050.67 32.44C1050.22 32.9627 1049.66 33.2707 1048.99 33.364V33.42C1050.78 33.8494 1051.68 34.82 1051.68 36.332C1051.68 38.8707 1049.68 40.14 1045.69 40.14C1045.11 40.14 1044.22 40.112 1043.03 40.056C1042.73 40.056 1042.38 40.0467 1041.99 40.028C1041.62 40.028 1041.33 40.0187 1041.12 40C1040.94 40 1040.79 40 1040.67 40ZM1045.91 34.652H1043.89V37.452C1045.01 37.5267 1045.72 37.564 1046.02 37.564C1046.73 37.564 1047.28 37.4334 1047.67 37.172C1048.09 36.9107 1048.29 36.556 1048.29 36.108C1048.29 35.1374 1047.5 34.652 1045.91 34.652ZM1045.91 29.864C1045.16 29.864 1044.49 29.8827 1043.89 29.92V32.692H1045.99C1046.57 32.692 1047.04 32.5614 1047.39 32.3C1047.75 32.0387 1047.93 31.684 1047.93 31.236C1047.93 30.3214 1047.25 29.864 1045.91 29.864Z" fill="white"/>
<path d="M1055.99 30.648L1055.18 28.296C1056.54 27.4934 1058.02 27.092 1059.63 27.092C1061.38 27.092 1062.66 27.5214 1063.47 28.38C1064.27 29.2387 1064.67 30.5547 1064.67 32.328V40H1061.87V38.544C1061.12 39.6267 1059.88 40.168 1058.15 40.168C1056.95 40.168 1055.99 39.8227 1055.26 39.132C1054.55 38.4227 1054.2 37.48 1054.2 36.304C1054.2 34.9974 1054.62 33.9894 1055.46 33.28C1056.3 32.5707 1057.41 32.216 1058.79 32.216C1059.93 32.216 1060.88 32.4867 1061.65 33.028C1061.68 31.908 1061.51 31.0867 1061.14 30.564C1060.79 30.0414 1060.17 29.78 1059.29 29.78C1058.32 29.78 1057.22 30.0694 1055.99 30.648ZM1059.21 37.452C1060.29 37.452 1061.1 37.0694 1061.65 36.304V35.016C1061.12 34.6054 1060.39 34.4 1059.43 34.4C1058.84 34.4 1058.35 34.54 1057.98 34.82C1057.6 35.1 1057.42 35.4827 1057.42 35.968C1057.42 36.416 1057.59 36.78 1057.92 37.06C1058.26 37.3214 1058.69 37.452 1059.21 37.452Z" fill="white"/>
<path d="M1077.35 32.02L1071.47 40H1068.25V27.4H1071.47V35.38L1077.35 27.4H1080.57V40H1077.35V32.02ZM1070.13 21.1H1073.07C1073.07 21.716 1073.19 22.2107 1073.43 22.584C1073.67 22.9574 1074.04 23.144 1074.52 23.144C1074.95 23.144 1075.28 22.9574 1075.5 22.584C1075.74 22.192 1075.87 21.6974 1075.87 21.1H1078.81C1078.81 22.4067 1078.42 23.4614 1077.66 24.264C1076.89 25.048 1075.85 25.44 1074.52 25.44C1073.07 25.44 1071.96 25.0574 1071.22 24.292C1070.49 23.508 1070.13 22.444 1070.13 21.1Z" fill="white"/>
<path d="M1087.27 30.62H1083.13V27.4H1094.61V30.62H1090.49V40H1087.27V30.62Z" fill="white"/>
<path d="M1106.69 36.472L1107.62 38.74C1106.37 39.7854 1104.76 40.308 1102.8 40.308C1100.79 40.308 1099.14 39.7014 1097.87 38.488C1096.64 37.2934 1096.03 35.6974 1096.03 33.7C1096.03 31.8334 1096.63 30.2654 1097.85 28.996C1099.06 27.7267 1100.67 27.092 1102.69 27.092C1104.35 27.092 1105.76 27.6427 1106.92 28.744C1108.08 29.8454 1108.65 31.2454 1108.65 32.944C1108.65 33.6907 1108.59 34.2694 1108.46 34.68H1099.36C1099.49 35.5947 1099.89 36.3134 1100.56 36.836C1101.25 37.3587 1102.11 37.62 1103.14 37.62C1104.54 37.62 1105.72 37.2374 1106.69 36.472ZM1102.55 29.78C1100.72 29.78 1099.62 30.6947 1099.25 32.524H1105.43C1105.45 31.7214 1105.19 31.068 1104.65 30.564C1104.13 30.0414 1103.43 29.78 1102.55 29.78Z" fill="white"/>
<path d="M1129.56 40H1126.34V30.424H1120.96V40H1117.74V27.4H1129.56V40Z" fill="white"/>
<path d="M1136.64 45.6H1133.42V27.4H1136.64V28.604C1137.05 28.156 1137.61 27.792 1138.32 27.512C1139.03 27.232 1139.76 27.092 1140.53 27.092C1142.26 27.092 1143.65 27.6894 1144.67 28.884C1145.72 30.0974 1146.24 31.6374 1146.24 33.504C1146.24 35.464 1145.62 37.088 1144.39 38.376C1143.16 39.664 1141.55 40.308 1139.58 40.308C1138.31 40.308 1137.33 40.1027 1136.64 39.692V45.6ZM1139.52 30.116C1138.4 30.116 1137.44 30.5734 1136.64 31.488V36.584C1137.4 37.0694 1138.29 37.312 1139.3 37.312C1140.36 37.312 1141.21 36.9667 1141.84 36.276C1142.5 35.5854 1142.82 34.6894 1142.82 33.588C1142.82 32.5427 1142.53 31.7027 1141.93 31.068C1141.35 30.4334 1140.55 30.116 1139.52 30.116Z" fill="white"/>
<path d="M1158.41 32.02L1152.53 40H1149.31V27.4H1152.53V35.38L1158.41 27.4H1161.63V40H1158.41V32.02Z" fill="white"/>
<path d="M1169.96 40.308C1168.85 40.308 1167.78 40.112 1166.74 39.72C1165.69 39.3094 1164.93 38.8054 1164.47 38.208L1166.12 36.192C1166.49 36.6214 1167.02 36.9854 1167.72 37.284C1168.41 37.5827 1169.06 37.732 1169.68 37.732C1170.5 37.732 1171.13 37.592 1171.58 37.312C1172.03 37.032 1172.25 36.6587 1172.25 36.192C1172.25 35.7627 1172.08 35.4174 1171.75 35.156C1171.41 34.8947 1170.94 34.764 1170.35 34.764H1168V32.608H1170.21C1170.71 32.608 1171.11 32.468 1171.41 32.188C1171.73 31.8894 1171.89 31.516 1171.89 31.068C1171.89 30.1534 1171.15 29.696 1169.68 29.696C1168.52 29.696 1167.37 30.1814 1166.23 31.152L1164.89 29.22C1166.08 27.8014 1167.88 27.092 1170.29 27.092C1171.92 27.092 1173.16 27.4094 1174.02 28.044C1174.89 28.66 1175.33 29.5374 1175.33 30.676C1175.33 31.292 1175.13 31.852 1174.72 32.356C1174.3 32.86 1173.74 33.2334 1173.01 33.476V33.532C1173.85 33.7 1174.5 34.0547 1174.97 34.596C1175.43 35.1187 1175.67 35.7534 1175.67 36.5C1175.67 37.676 1175.14 38.6094 1174.1 39.3C1173.07 39.972 1171.69 40.308 1169.96 40.308Z" fill="white"/>
<path d="M1183.53 40H1178.99V27.4H1182.21V30.844H1183.78C1185.66 30.844 1187.05 31.236 1187.95 32.02C1188.86 32.804 1189.32 33.868 1189.32 35.212C1189.32 36.6494 1188.84 37.8067 1187.87 38.684C1186.9 39.5614 1185.45 40 1183.53 40ZM1194.33 40H1191.11V27.4H1194.33V40ZM1183.5 33.42H1182.21V37.2H1183.47C1185.09 37.2 1185.91 36.5747 1185.91 35.324C1185.91 34.0547 1185.1 33.42 1183.5 33.42Z" fill="white"/>
<path d="M1204.41 40V27.4C1204.57 27.4 1205.28 27.3814 1206.53 27.344C1207.8 27.288 1208.75 27.26 1209.36 27.26C1213.17 27.26 1215.07 28.3614 1215.07 30.564C1215.07 31.2734 1214.85 31.8987 1214.4 32.44C1213.95 32.9627 1213.39 33.2707 1212.72 33.364V33.42C1214.51 33.8494 1215.41 34.82 1215.41 36.332C1215.41 38.8707 1213.41 40.14 1209.42 40.14C1208.84 40.14 1207.95 40.112 1206.76 40.056C1206.46 40.056 1206.11 40.0467 1205.72 40.028C1205.35 40.028 1205.06 40.0187 1204.85 40C1204.67 40 1204.52 40 1204.41 40ZM1209.64 34.652H1207.63V37.452C1208.75 37.5267 1209.46 37.564 1209.75 37.564C1210.46 37.564 1211.01 37.4334 1211.41 37.172C1211.82 36.9107 1212.02 36.556 1212.02 36.108C1212.02 35.1374 1211.23 34.652 1209.64 34.652ZM1209.64 29.864C1208.9 29.864 1208.22 29.8827 1207.63 29.92V32.692H1209.73C1210.3 32.692 1210.77 32.5614 1211.13 32.3C1211.48 32.0387 1211.66 31.684 1211.66 31.236C1211.66 30.3214 1210.99 29.864 1209.64 29.864Z" fill="white"/>
<path d="M1236.91 40H1233.69V35.184H1228.17V40H1224.95V27.4H1228.17V32.16H1233.69V27.4H1236.91V40Z" fill="white"/>
<path d="M1241.86 38.46C1240.61 37.2094 1239.98 35.6227 1239.98 33.7C1239.98 31.7774 1240.61 30.2 1241.86 28.968C1243.11 27.7174 1244.77 27.092 1246.84 27.092C1248.89 27.092 1250.55 27.7174 1251.8 28.968C1253.07 30.2 1253.7 31.7774 1253.7 33.7C1253.7 35.604 1253.07 37.1907 1251.8 38.46C1250.53 39.692 1248.88 40.308 1246.84 40.308C1244.77 40.308 1243.11 39.692 1241.86 38.46ZM1244.41 31.124C1243.75 31.796 1243.43 32.6547 1243.43 33.7C1243.43 34.7454 1243.74 35.6134 1244.38 36.304C1245.03 36.976 1245.85 37.312 1246.84 37.312C1247.85 37.312 1248.67 36.976 1249.31 36.304C1249.96 35.632 1250.29 34.764 1250.29 33.7C1250.29 32.6547 1249.96 31.796 1249.31 31.124C1248.65 30.452 1247.83 30.116 1246.84 30.116C1245.87 30.116 1245.06 30.452 1244.41 31.124Z" fill="white"/>
<path d="M1256.77 40V27.4C1256.94 27.4 1257.65 27.3814 1258.9 27.344C1260.17 27.288 1261.11 27.26 1261.72 27.26C1265.53 27.26 1267.44 28.3614 1267.44 30.564C1267.44 31.2734 1267.21 31.8987 1266.76 32.44C1266.32 32.9627 1265.76 33.2707 1265.08 33.364V33.42C1266.88 33.8494 1267.77 34.82 1267.77 36.332C1267.77 38.8707 1265.77 40.14 1261.78 40.14C1261.2 40.14 1260.31 40.112 1259.12 40.056C1258.82 40.056 1258.48 40.0467 1258.08 40.028C1257.71 40.028 1257.42 40.0187 1257.22 40C1257.03 40 1256.88 40 1256.77 40ZM1262 34.652H1259.99V37.452C1261.11 37.5267 1261.82 37.564 1262.12 37.564C1262.83 37.564 1263.38 37.4334 1263.77 37.172C1264.18 36.9107 1264.38 36.556 1264.38 36.108C1264.38 35.1374 1263.59 34.652 1262 34.652ZM1262 29.864C1261.26 29.864 1260.59 29.8827 1259.99 29.92V32.692H1262.09C1262.67 32.692 1263.13 32.5614 1263.49 32.3C1263.84 32.0387 1264.02 31.684 1264.02 31.236C1264.02 30.3214 1263.35 29.864 1262 29.864Z" fill="white"/>
<path d="M1272.19 38.46C1270.94 37.2094 1270.32 35.6227 1270.32 33.7C1270.32 31.7774 1270.94 30.2 1272.19 28.968C1273.45 27.7174 1275.11 27.092 1277.18 27.092C1279.23 27.092 1280.88 27.7174 1282.13 28.968C1283.4 30.2 1284.04 31.7774 1284.04 33.7C1284.04 35.604 1283.4 37.1907 1282.13 38.46C1280.87 39.692 1279.21 40.308 1277.18 40.308C1275.11 40.308 1273.45 39.692 1272.19 38.46ZM1274.74 31.124C1274.09 31.796 1273.76 32.6547 1273.76 33.7C1273.76 34.7454 1274.08 35.6134 1274.71 36.304C1275.37 36.976 1276.19 37.312 1277.18 37.312C1278.19 37.312 1279.01 36.976 1279.64 36.304C1280.3 35.632 1280.62 34.764 1280.62 33.7C1280.62 32.6547 1280.3 31.796 1279.64 31.124C1278.99 30.452 1278.17 30.116 1277.18 30.116C1276.21 30.116 1275.4 30.452 1274.74 31.124Z" fill="white"/>
<path d="M1290.33 40H1287.11V27.4H1295.56V30.424H1290.33V40Z" fill="white"/>
<path d="M1298.57 38.46C1297.32 37.2094 1296.69 35.6227 1296.69 33.7C1296.69 31.7774 1297.32 30.2 1298.57 28.968C1299.82 27.7174 1301.48 27.092 1303.55 27.092C1305.6 27.092 1307.26 27.7174 1308.51 28.968C1309.78 30.2 1310.41 31.7774 1310.41 33.7C1310.41 35.604 1309.78 37.1907 1308.51 38.46C1307.24 39.692 1305.59 40.308 1303.55 40.308C1301.48 40.308 1299.82 39.692 1298.57 38.46ZM1301.12 31.124C1300.46 31.796 1300.14 32.6547 1300.14 33.7C1300.14 34.7454 1300.45 35.6134 1301.09 36.304C1301.74 36.976 1302.56 37.312 1303.55 37.312C1304.56 37.312 1305.38 36.976 1306.02 36.304C1306.67 35.632 1307 34.764 1307 33.7C1307 32.6547 1306.67 31.796 1306.02 31.124C1305.36 30.452 1304.54 30.116 1303.55 30.116C1302.58 30.116 1301.77 30.452 1301.12 31.124Z" fill="white"/>
<path d="M1314.55 42.94H1311.56V37.004H1313.15C1314.14 35.6787 1314.73 33.4854 1314.92 30.424L1315.11 27.4H1324.41V37.004H1326.51V42.94H1323.48V40H1314.55V42.94ZM1318.11 30.424L1318.02 31.712C1317.8 34.1387 1317.3 35.9027 1316.51 37.004H1321.19V30.424H1318.11Z" fill="white"/>
<path d="M1340.86 40H1337.64V35.184H1332.13V40H1328.91V27.4H1332.13V32.16H1337.64V27.4H1340.86V40Z" fill="white"/>
<path d="M1354.6 36.472L1355.53 38.74C1354.27 39.7854 1352.67 40.308 1350.71 40.308C1348.69 40.308 1347.05 39.7014 1345.78 38.488C1344.55 37.2934 1343.93 35.6974 1343.93 33.7C1343.93 31.8334 1344.54 30.2654 1345.75 28.996C1346.97 27.7267 1348.58 27.092 1350.6 27.092C1352.26 27.092 1353.67 27.6427 1354.83 28.744C1355.98 29.8454 1356.56 31.2454 1356.56 32.944C1356.56 33.6907 1356.5 34.2694 1356.37 34.68H1347.27C1347.4 35.5947 1347.8 36.3134 1348.47 36.836C1349.16 37.3587 1350.02 37.62 1351.05 37.62C1352.45 37.62 1353.63 37.2374 1354.6 36.472ZM1350.46 29.78C1348.63 29.78 1347.53 30.6947 1347.15 32.524H1353.34C1353.36 31.7214 1353.1 31.068 1352.56 30.564C1352.03 30.0414 1351.33 29.78 1350.46 29.78Z" fill="white"/>
<path d="M1368.54 32.02L1362.65 40H1359.43V27.4H1362.65V35.38L1368.54 27.4H1371.76V40H1368.54V32.02ZM1361.31 21.1H1364.25C1364.25 21.716 1364.37 22.2107 1364.62 22.584C1364.86 22.9574 1365.22 23.144 1365.71 23.144C1366.14 23.144 1366.46 22.9574 1366.69 22.584C1366.93 22.192 1367.05 21.6974 1367.05 21.1H1369.99C1369.99 22.4067 1369.61 23.4614 1368.84 24.264C1368.08 25.048 1367.03 25.44 1365.71 25.44C1364.25 25.44 1363.15 25.0574 1362.4 24.292C1361.68 23.508 1361.31 22.444 1361.31 21.1Z" fill="white"/>
<path d="M1381.84 40V27.4C1382.01 27.4 1382.72 27.3814 1383.97 27.344C1385.24 27.288 1386.18 27.26 1386.8 27.26C1390.61 27.26 1392.51 28.3614 1392.51 30.564C1392.51 31.2734 1392.29 31.8987 1391.84 32.44C1391.39 32.9627 1390.83 33.2707 1390.16 33.364V33.42C1391.95 33.8494 1392.85 34.82 1392.85 36.332C1392.85 38.8707 1390.85 40.14 1386.85 40.14C1386.28 40.14 1385.39 40.112 1384.19 40.056C1383.9 40.056 1383.55 40.0467 1383.16 40.028C1382.79 40.028 1382.5 40.0187 1382.29 40C1382.1 40 1381.95 40 1381.84 40ZM1387.08 34.652H1385.06V37.452C1386.18 37.5267 1386.89 37.564 1387.19 37.564C1387.9 37.564 1388.45 37.4334 1388.84 37.172C1389.25 36.9107 1389.46 36.556 1389.46 36.108C1389.46 35.1374 1388.67 34.652 1387.08 34.652ZM1387.08 29.864C1386.33 29.864 1385.66 29.8827 1385.06 29.92V32.692H1387.16C1387.74 32.692 1388.21 32.5614 1388.56 32.3C1388.92 32.0387 1389.09 31.684 1389.09 31.236C1389.09 30.3214 1388.42 29.864 1387.08 29.864Z" fill="white"/>
<path d="M1405.28 32.02L1399.4 40H1396.18V27.4H1399.4V35.38L1405.28 27.4H1408.5V40H1405.28V32.02Z" fill="white"/>
<path d="M1420.24 27.4H1424.3L1419.46 33.392L1424.89 40H1420.69L1415.7 33.644L1420.24 27.4ZM1415.59 40H1412.37V27.4H1415.59V40Z" fill="white"/>
<path d="M1429.89 30.62H1425.75V27.4H1437.23V30.62H1433.11V40H1429.89V30.62Z" fill="white"/>
<path d="M1440.52 38.46C1439.27 37.2094 1438.64 35.6227 1438.64 33.7C1438.64 31.7774 1439.27 30.2 1440.52 28.968C1441.77 27.7174 1443.43 27.092 1445.5 27.092C1447.56 27.092 1449.21 27.7174 1450.46 28.968C1451.73 30.2 1452.36 31.7774 1452.36 33.7C1452.36 35.604 1451.73 37.1907 1450.46 38.46C1449.19 39.692 1447.54 40.308 1445.5 40.308C1443.43 40.308 1441.77 39.692 1440.52 38.46ZM1443.07 31.124C1442.41 31.796 1442.09 32.6547 1442.09 33.7C1442.09 34.7454 1442.4 35.6134 1443.04 36.304C1443.69 36.976 1444.51 37.312 1445.5 37.312C1446.51 37.312 1447.33 36.976 1447.97 36.304C1448.62 35.632 1448.95 34.764 1448.95 33.7C1448.95 32.6547 1448.62 31.796 1447.97 31.124C1447.31 30.452 1446.49 30.116 1445.5 30.116C1444.53 30.116 1443.72 30.452 1443.07 31.124Z" fill="white"/>
<path d="M1458.65 45.6H1455.43V27.4H1458.65V28.604C1459.06 28.156 1459.62 27.792 1460.33 27.512C1461.04 27.232 1461.78 27.092 1462.54 27.092C1464.28 27.092 1465.66 27.6894 1466.69 28.884C1467.73 30.0974 1468.25 31.6374 1468.25 33.504C1468.25 35.464 1467.64 37.088 1466.41 38.376C1465.17 39.664 1463.57 40.308 1461.59 40.308C1460.32 40.308 1459.34 40.1027 1458.65 39.692V45.6ZM1461.53 30.116C1460.41 30.116 1459.45 30.5734 1458.65 31.488V36.584C1459.42 37.0694 1460.3 37.312 1461.31 37.312C1462.37 37.312 1463.22 36.9667 1463.86 36.276C1464.51 35.5854 1464.84 34.6894 1464.84 33.588C1464.84 32.5427 1464.54 31.7027 1463.94 31.068C1463.36 30.4334 1462.56 30.116 1461.53 30.116Z" fill="white"/>
<path d="M1480.42 32.02L1474.54 40H1471.32V27.4H1474.54V35.38L1480.42 27.4H1483.64V40H1480.42V32.02Z" fill="white"/>
<path d="M1499.47 40H1496.25V35.184H1490.74V40H1487.52V27.4H1490.74V32.16H1496.25V27.4H1499.47V40Z" fill="white"/>
<path d="M1513.21 36.472L1514.14 38.74C1512.89 39.7854 1511.28 40.308 1509.32 40.308C1507.3 40.308 1505.66 39.7014 1504.39 38.488C1503.16 37.2934 1502.54 35.6974 1502.54 33.7C1502.54 31.8334 1503.15 30.2654 1504.36 28.996C1505.58 27.7267 1507.19 27.092 1509.21 27.092C1510.87 27.092 1512.28 27.6427 1513.44 28.744C1514.59 29.8454 1515.17 31.2454 1515.17 32.944C1515.17 33.6907 1515.11 34.2694 1514.98 34.68H1505.88C1506.01 35.5947 1506.41 36.3134 1507.08 36.836C1507.77 37.3587 1508.63 37.62 1509.66 37.62C1511.06 37.62 1512.24 37.2374 1513.21 36.472ZM1509.07 29.78C1507.24 29.78 1506.14 30.6947 1505.76 32.524H1511.95C1511.97 31.7214 1511.71 31.068 1511.17 30.564C1510.65 30.0414 1509.95 29.78 1509.07 29.78Z" fill="white"/>
<path d="M1522.3 33.224H1518.89V20.4H1522.3V33.224ZM1518.44 37.9C1518.44 37.3587 1518.64 36.8827 1519.05 36.472C1519.48 36.0427 1520.02 35.828 1520.68 35.828C1521.24 35.828 1521.71 36.0427 1522.11 36.472C1522.52 36.8827 1522.72 37.3587 1522.72 37.9C1522.72 38.516 1522.52 39.048 1522.11 39.496C1521.71 39.9254 1521.24 40.14 1520.68 40.14C1520.02 40.14 1519.48 39.9254 1519.05 39.496C1518.64 39.048 1518.44 38.516 1518.44 37.9Z" fill="white"/>
<path d="M1443.38 11.687C1443.77 11.028 1452.11 -2.021 1452.77 -1.63579C1453.43 -1.25058 1446.15 12.4229 1445.77 13.0819C1445.38 13.7409 1444.54 13.9629 1443.88 13.5777C1443.22 13.1925 1443 12.346 1443.38 11.687Z" fill="#94A0C8"/>
<path d="M1470.68 6.94455C1470.02 6.55934 1456.97 -1.78511 1457.36 -2.4441C1457.74 -3.10309 1471.42 4.17292 1472.08 4.55813C1472.73 4.94334 1472.96 5.78983 1472.57 6.44883C1472.19 7.10782 1471.34 7.32976 1470.68 6.94455Z" fill="#94A0C8"/>
<path d="M1435.95 -0.856533C1436.69 -1.05013 1451.82 -4.37672 1452.01 -3.63836C1452.2 -2.9 1437.39 1.62372 1436.65 1.81731C1435.91 2.01091 1435.16 1.56929 1434.96 0.830923C1434.77 0.0925598 1435.21 -0.66294 1435.95 -0.856533Z" fill="#94A0C8"/>
<path d="M1457.75 14.1539C1457.56 13.4156 1454.23 -1.71186 1454.97 -1.90546C1455.71 -2.09905 1460.24 12.7145 1460.43 13.4529C1460.62 14.1912 1460.18 14.9467 1459.44 15.1403C1458.7 15.3339 1457.95 14.8923 1457.75 14.1539Z" fill="#94A0C8"/>
<line x1="1453.24" y1="1.81724" x2="1452.36" y2="14.0782" stroke="url(#paint0_linear)" stroke-linecap="round"/>
<line x1="1450.35" y1="-0.971566" x2="1440.31" y2="6.12289" stroke="url(#paint1_linear)" stroke-linecap="round"/>
<line x1="1465.37" y1="10.9329" x2="1458" y2="1.09182" stroke="url(#paint2_linear)" stroke-linecap="round"/>
<circle cx="1010" cy="7" r="3" transform="rotate(-180 1010 7)" fill="white" fill-opacity="0.5"/>
<path d="M1845 34C1845 35.1046 1844.1 57.5 1843 57.5C1841.9 57.5 1841 35.1046 1841 34C1841 32.8954 1841.9 32 1843 32C1844.1 32 1845 32.8954 1845 34Z" fill="#94A0C8"/>
<path d="M1863.45 44.2426C1862.66 45.0237 1846.2 60.2265 1845.41 59.4454C1844.63 58.6644 1859.84 42.1953 1860.62 41.4142C1861.4 40.6332 1862.66 40.6332 1863.45 41.4142C1864.23 42.1953 1864.23 43.4616 1863.45 44.2426Z" fill="#94A0C8"/>
<path d="M1871.5 64C1870.4 64 1848 63.1046 1848 62C1848 60.8954 1870.4 60 1871.5 60C1872.6 60 1873.5 60.8954 1873.5 62C1873.5 63.1046 1872.6 64 1871.5 64Z" fill="#94A0C8"/>
<path d="M1814 60C1815.1 60 1837.5 60.8954 1837.5 62C1837.5 63.1046 1815.1 64 1814 64C1812.9 64 1812 63.1046 1812 62C1812 60.8954 1812.9 60 1814 60Z" fill="#94A0C8"/>
<path d="M1822.41 79.617C1823.19 78.8359 1839.66 63.6331 1840.45 64.4142C1841.23 65.1952 1826.02 81.6644 1825.24 82.4454C1824.46 83.2265 1823.19 83.2265 1822.41 82.4454C1821.63 81.6644 1821.63 80.398 1822.41 79.617Z" fill="#94A0C8"/>
<path d="M1825.24 41.4142C1826.02 42.1952 1841.23 58.6643 1840.45 59.4454C1839.66 60.2264 1823.2 45.0236 1822.41 44.2426C1821.63 43.4615 1821.63 42.1952 1822.41 41.4142C1823.2 40.6331 1824.46 40.6331 1825.24 41.4142Z" fill="#94A0C8"/>
<path d="M1860.62 82.4455C1859.84 81.6644 1844.63 65.1953 1845.41 64.4142C1846.19 63.6332 1862.66 78.836 1863.45 79.617C1864.23 80.3981 1864.23 81.6644 1863.45 82.4455C1862.66 83.2265 1861.4 83.2265 1860.62 82.4455Z" fill="#94A0C8"/>
<path d="M633.04 19.548C633.467 18.8082 642.727 4.15444 643.467 4.58157C644.207 5.00871 636.147 20.355 635.719 21.0948C635.292 21.8346 634.346 22.0881 633.606 21.6609C632.867 21.2338 632.613 20.2878 633.04 19.548Z" fill="#94A0C8"/>
<path d="M665.808 -2.27141C664.983 -2.05031 648.073 1.76364 647.852 0.938483C647.631 0.113324 664.182 -5.03847 665.007 -5.25957C665.832 -5.48067 666.68 -4.99099 666.902 -4.16583C667.123 -3.34067 666.633 -2.49251 665.808 -2.27141Z" fill="#94A0C8"/>
<path d="M663.562 14.0764C662.823 13.6492 648.169 4.38925 648.596 3.64944C649.023 2.90962 664.369 10.9701 665.109 11.3973C665.849 11.8244 666.102 12.7704 665.675 13.5102C665.248 14.25 664.302 14.5035 663.562 14.0764Z" fill="#94A0C8"/>
<path d="M626.597 -10.8379C627.337 -10.4107 641.991 -1.15073 641.563 -0.410913C641.136 0.328905 625.79 -7.7316 625.05 -8.15873C624.31 -8.58587 624.057 -9.53187 624.484 -10.2717C624.911 -11.0115 625.857 -11.265 626.597 -10.8379Z" fill="#94A0C8"/>
<path d="M624.647 5.55486C625.472 5.33376 642.381 1.51981 642.603 2.34497C642.824 3.17013 626.273 8.32192 625.447 8.54302C624.622 8.76412 623.774 8.27444 623.553 7.44928C623.332 6.62412 623.822 5.77596 624.647 5.55486Z" fill="#94A0C8"/>
<path d="M649.141 22.2222C648.919 21.3971 645.106 4.48754 645.931 4.26643C646.756 4.04533 651.908 20.5964 652.129 21.4216C652.35 22.2467 651.86 23.0949 651.035 23.316C650.21 23.5371 649.362 23.0474 649.141 22.2222Z" fill="#94A0C8"/>
<path d="M282.96 47.0627C282.533 47.8026 273.273 62.4563 272.533 62.0291C271.793 61.602 279.854 46.2558 280.281 45.5159C280.708 44.7761 281.654 44.5227 282.394 44.9498C283.134 45.3769 283.387 46.3229 282.96 47.0627Z" fill="#94A0C8"/>
<path d="M252.438 52.5343C253.178 52.9615 267.831 62.2215 267.404 62.9613C266.977 63.7011 251.631 55.6406 250.891 55.2135C250.151 54.7863 249.898 53.8403 250.325 53.1005C250.752 52.3607 251.698 52.1072 252.438 52.5343Z" fill="#94A0C8"/>
<path d="M291.353 61.0559C290.528 61.277 273.619 65.0909 273.398 64.2657C273.177 63.4406 289.728 58.2888 290.553 58.0677C291.378 57.8466 292.226 58.3363 292.447 59.1614C292.668 59.9866 292.179 60.8348 291.353 61.0559Z" fill="#94A0C8"/>
<path d="M266.86 44.3885C267.081 45.2136 270.895 62.1232 270.07 62.3443C269.244 62.5654 264.093 46.0143 263.872 45.1892C263.65 44.364 264.14 43.5158 264.965 43.2947C265.79 43.0736 266.639 43.5633 266.86 44.3885Z" fill="#94A0C8"/>
<path d="M2218.96 47.0627C2218.53 47.8026 2209.27 62.4563 2208.53 62.0291C2207.79 61.602 2215.85 46.2558 2216.28 45.5159C2216.71 44.7761 2217.65 44.5227 2218.39 44.9498C2219.13 45.3769 2219.39 46.3229 2218.96 47.0627Z" fill="#94A0C8"/>
<path d="M2188.44 52.5343C2189.18 52.9615 2203.83 62.2215 2203.4 62.9613C2202.98 63.7011 2187.63 55.6406 2186.89 55.2135C2186.15 54.7863 2185.9 53.8403 2186.32 53.1005C2186.75 52.3607 2187.7 52.1072 2188.44 52.5343Z" fill="#94A0C8"/>
<path d="M2227.35 61.0559C2226.53 61.277 2209.62 65.0909 2209.4 64.2657C2209.18 63.4406 2225.73 58.2888 2226.55 58.0677C2227.38 57.8466 2228.23 58.3363 2228.45 59.1614C2228.67 59.9866 2228.18 60.8348 2227.35 61.0559Z" fill="#94A0C8"/>
<path d="M2202.86 44.3885C2203.08 45.2136 2206.89 62.1232 2206.07 62.3443C2205.24 62.5654 2200.09 46.0143 2199.87 45.1892C2199.65 44.364 2200.14 43.5158 2200.97 43.2947C2201.79 43.0736 2202.64 43.5633 2202.86 44.3885Z" fill="#94A0C8"/>
<path d="M833.39 49.1091C833.39 49.7916 832.837 63.6294 832.154 63.6294C831.472 63.6294 830.919 49.7916 830.919 49.1091C830.919 48.4266 831.472 47.8733 832.154 47.8733C832.837 47.8733 833.39 48.4266 833.39 49.1091Z" fill="#94A0C8"/>
<path d="M844.787 55.4379C844.305 55.9205 834.129 65.3141 833.646 64.8315C833.164 64.3489 842.557 54.1728 843.04 53.6902C843.522 53.2076 844.305 53.2076 844.787 53.6902C845.27 54.1728 845.27 54.9553 844.787 55.4379Z" fill="#94A0C8"/>
<path d="M821.183 53.6901C821.665 54.1727 831.059 64.3488 830.576 64.8314C830.094 65.314 819.917 55.9204 819.435 55.4378C818.952 54.9552 818.952 54.1727 819.435 53.6901C819.917 53.2075 820.7 53.2075 821.183 53.6901Z" fill="#94A0C8"/>
<line x1="846.776" y1="59.6711" x2="837.155" y2="64.7642" stroke="url(#paint3_linear)" stroke-linecap="round"/>
<line x1="838.557" y1="51.6249" x2="834.052" y2="61.5345" stroke="url(#paint4_linear)" stroke-linecap="round"/>
<line x1="825.409" y1="51.1908" x2="830.213" y2="60.9588" stroke="url(#paint5_linear)" stroke-linecap="round"/>
<line x1="827.621" y1="65.1174" x2="817.592" y2="60.8859" stroke="url(#paint6_linear)" stroke-linecap="round"/>
<path d="M82.6098 17.5017C82.6098 16.8192 83.163 2.98133 83.8455 2.98133C84.528 2.98133 85.0813 16.8192 85.0813 17.5017C85.0813 18.1842 84.528 18.7374 83.8455 18.7374C83.163 18.7374 82.6098 18.1842 82.6098 17.5017Z" fill="#94A0C8"/>
<path d="M71.2126 11.1728C71.6952 10.6902 81.8712 1.29665 82.3538 1.77925C82.8364 2.26185 73.4428 12.4379 72.9602 12.9205C72.4776 13.4031 71.6952 13.4031 71.2126 12.9205C70.73 12.4379 70.73 11.6554 71.2126 11.1728Z" fill="#94A0C8"/>
<path d="M66.2358 -1.0349C66.9183 -1.0349 80.7561 -0.481623 80.7561 0.200875C80.7561 0.883373 66.9183 1.43665 66.2358 1.43665C65.5533 1.43665 65 0.883371 65 0.200873C65 -0.481625 65.5533 -1.0349 66.2358 -1.0349Z" fill="#94A0C8"/>
<path d="M101.764 1.43663C101.082 1.43663 87.2439 0.883357 87.2439 0.200859C87.2439 -0.48164 101.082 -1.03491 101.764 -1.03491C102.447 -1.03491 103 -0.481638 103 0.20086C103 0.883359 102.447 1.43663 101.764 1.43663Z" fill="#94A0C8"/>
<path d="M94.8175 12.9206C94.3349 12.438 84.9413 2.26193 85.4239 1.77933C85.9065 1.29673 96.0825 10.6903 96.5651 11.1729C97.0477 11.6555 97.0477 12.438 96.5651 12.9206C96.0825 13.4032 95.3001 13.4032 94.8175 12.9206Z" fill="#94A0C8"/>
<line x1="69.2243" y1="6.93964" x2="78.8446" y2="1.84655" stroke="url(#paint7_linear)" stroke-linecap="round"/>
<line x1="77.4434" y1="14.9859" x2="81.9476" y2="5.07622" stroke="url(#paint8_linear)" stroke-linecap="round"/>
<line x1="90.5909" y1="15.4199" x2="85.7873" y2="5.65187" stroke="url(#paint9_linear)" stroke-linecap="round"/>
<line x1="88.3792" y1="1.49333" x2="98.4083" y2="5.72478" stroke="url(#paint10_linear)" stroke-linecap="round"/>
<path d="M2018.61 17.5017C2018.61 16.8192 2019.16 2.98133 2019.85 2.98133C2020.53 2.98133 2021.08 16.8192 2021.08 17.5017C2021.08 18.1842 2020.53 18.7374 2019.85 18.7374C2019.16 18.7374 2018.61 18.1842 2018.61 17.5017Z" fill="#94A0C8"/>
<path d="M2007.21 11.1728C2007.7 10.6902 2017.87 1.29665 2018.35 1.77925C2018.84 2.26185 2009.44 12.4379 2008.96 12.9205C2008.48 13.4031 2007.7 13.4031 2007.21 12.9205C2006.73 12.4379 2006.73 11.6554 2007.21 11.1728Z" fill="#94A0C8"/>
<path d="M2002.24 -1.0349C2002.92 -1.0349 2016.76 -0.481623 2016.76 0.200875C2016.76 0.883373 2002.92 1.43665 2002.24 1.43665C2001.55 1.43665 2001 0.883371 2001 0.200873C2001 -0.481625 2001.55 -1.0349 2002.24 -1.0349Z" fill="#94A0C8"/>
<path d="M2037.76 1.43663C2037.08 1.43663 2023.24 0.883357 2023.24 0.200859C2023.24 -0.48164 2037.08 -1.03491 2037.76 -1.03491C2038.45 -1.03491 2039 -0.481638 2039 0.20086C2039 0.883359 2038.45 1.43663 2037.76 1.43663Z" fill="#94A0C8"/>
<path d="M2030.82 12.9206C2030.33 12.438 2020.94 2.26193 2021.42 1.77933C2021.91 1.29673 2032.08 10.6903 2032.57 11.1729C2033.05 11.6555 2033.05 12.438 2032.57 12.9206C2032.08 13.4032 2031.3 13.4032 2030.82 12.9206Z" fill="#94A0C8"/>
<line x1="2005.22" y1="6.93964" x2="2014.84" y2="1.84655" stroke="url(#paint11_linear)" stroke-linecap="round"/>
<line x1="2013.44" y1="14.9859" x2="2017.95" y2="5.07622" stroke="url(#paint12_linear)" stroke-linecap="round"/>
<line x1="2026.59" y1="15.4199" x2="2021.79" y2="5.65187" stroke="url(#paint13_linear)" stroke-linecap="round"/>
<line x1="2024.38" y1="1.49333" x2="2034.41" y2="5.72478" stroke="url(#paint14_linear)" stroke-linecap="round"/>
<path d="M895.39 8.23577C895.39 8.91827 894.837 22.7561 894.154 22.7561C893.472 22.7561 892.919 8.91827 892.919 8.23577C892.919 7.55327 893.472 7 894.154 7C894.837 7 895.39 7.55327 895.39 8.23577Z" fill="#94A0C8"/>
<path d="M892.832 42.7507C892.832 42.0682 893.385 28.2304 894.068 28.2304C894.75 28.2304 895.303 42.0682 895.303 42.7507C895.303 43.4332 894.75 43.9865 894.068 43.9865C893.385 43.9865 892.832 43.4332 892.832 42.7507Z" fill="#94A0C8"/>
<path d="M906.787 14.5646C906.305 15.0472 896.129 24.4408 895.646 23.9582C895.164 23.4756 904.557 13.2995 905.04 12.8169C905.522 12.3343 906.305 12.3343 906.787 12.8169C907.27 13.2995 907.27 14.082 906.787 14.5646Z" fill="#94A0C8"/>
<path d="M911.764 26.7723C911.082 26.7723 897.244 26.2191 897.244 25.5366C897.244 24.8541 911.082 24.3008 911.764 24.3008C912.447 24.3008 913 24.8541 913 25.5366C913 26.2191 912.447 26.7723 911.764 26.7723Z" fill="#94A0C8"/>
<path d="M876.236 24.3008C876.918 24.3008 890.756 24.8541 890.756 25.5366C890.756 26.2191 876.918 26.7723 876.236 26.7723C875.553 26.7723 875 26.2191 875 25.5366C875 24.8541 875.553 24.3008 876.236 24.3008Z" fill="#94A0C8"/>
<path d="M881.435 36.4219C881.917 35.9393 892.093 26.5457 892.576 27.0283C893.059 27.5109 883.665 37.6869 883.182 38.1695C882.7 38.6521 881.917 38.6521 881.435 38.1695C880.952 37.6869 880.952 36.9045 881.435 36.4219Z" fill="#94A0C8"/>
<path d="M883.183 12.8169C883.665 13.2994 893.059 23.4755 892.576 23.9581C892.094 24.4407 881.917 15.0471 881.435 14.5645C880.952 14.0819 880.952 13.2994 881.435 12.8169C881.917 12.3343 882.7 12.3343 883.183 12.8169Z" fill="#94A0C8"/>
<path d="M905.04 38.1696C904.557 37.687 895.163 27.511 895.646 27.0284C896.129 26.5458 906.305 35.9394 906.787 36.422C907.27 36.9046 907.27 37.687 906.787 38.1696C906.305 38.6522 905.522 38.6522 905.04 38.1696Z" fill="#94A0C8"/>
<line x1="908.776" y1="18.7978" x2="899.155" y2="23.8909" stroke="url(#paint15_linear)" stroke-linecap="round"/>
<line x1="900.557" y1="10.7516" x2="896.052" y2="20.6612" stroke="url(#paint16_linear)" stroke-linecap="round"/>
<line x1="887.409" y1="10.3175" x2="892.213" y2="20.0856" stroke="url(#paint17_linear)" stroke-linecap="round"/>
<line x1="896.059" y1="30.7078" x2="900.863" y2="40.4758" stroke="url(#paint18_linear)" stroke-linecap="round"/>
<line x1="892.524" y1="29.906" x2="888.02" y2="39.8156" stroke="url(#paint19_linear)" stroke-linecap="round"/>
<line x1="889.003" y1="28.0661" x2="879.383" y2="33.1592" stroke="url(#paint20_linear)" stroke-linecap="round"/>
<line x1="889.621" y1="24.2441" x2="879.592" y2="20.0127" stroke="url(#paint21_linear)" stroke-linecap="round"/>
<line x1="909.393" y1="32.2767" x2="899.364" y2="28.0452" stroke="url(#paint22_linear)" stroke-linecap="round"/>
<path d="M520.224 24.4115C520.826 25.4536 532.18 47.0709 531.138 47.6725C530.096 48.2742 517.052 27.6325 516.45 26.5903C515.849 25.5482 516.206 24.2156 517.248 23.6139C518.29 23.0123 519.622 23.3693 520.224 24.4115Z" fill="#94A0C8"/>
<path d="M546.745 79.3688C546.144 78.3267 534.789 56.7094 535.831 56.1077C536.874 55.506 549.918 76.1478 550.519 77.19C551.121 78.2321 550.764 79.5647 549.722 80.1663C548.68 80.768 547.347 80.4109 546.745 79.3688Z" fill="#94A0C8"/>
<path d="M543.206 24.0276C542.895 25.19 535.638 48.5044 534.476 48.193C533.313 47.8815 538.686 24.0621 538.997 22.8998C539.309 21.7374 540.503 21.0476 541.666 21.3591C542.828 21.6705 543.518 22.8653 543.206 24.0276Z" fill="#94A0C8"/>
<path d="M561.568 38.2807C560.525 38.8824 538.908 50.2367 538.306 49.1946C537.705 48.1524 558.347 35.1085 559.389 34.5068C560.431 33.9051 561.763 34.2622 562.365 35.3043C562.967 36.3464 562.61 37.679 561.568 38.2807Z" fill="#94A0C8"/>
<path d="M505.139 65.8281C506.181 65.2264 527.798 53.8721 528.4 54.9142C529.002 55.9563 508.36 69.0003 507.318 69.602C506.276 70.2037 504.943 69.8466 504.341 68.8045C503.74 67.7623 504.097 66.4298 505.139 65.8281Z" fill="#94A0C8"/>
<path d="M523.763 79.7529C524.075 78.5905 531.332 55.2761 532.494 55.5875C533.657 55.899 528.284 79.7184 527.973 80.8807C527.661 82.0431 526.466 82.7329 525.304 82.4214C524.142 82.11 523.452 80.9152 523.763 79.7529Z" fill="#94A0C8"/>
<path d="M505.622 42.1685C506.784 42.48 530.099 49.737 529.787 50.8993C529.476 52.0617 505.657 46.6892 504.494 46.3778C503.332 46.0663 502.642 44.8716 502.954 43.7092C503.265 42.5469 504.46 41.8571 505.622 42.1685Z" fill="#94A0C8"/>
<path d="M561.347 61.6115C560.185 61.3 536.871 54.043 537.182 52.8807C537.493 51.7183 561.313 57.0908 562.475 57.4023C563.638 57.7137 564.327 58.9085 564.016 60.0708C563.704 61.2332 562.51 61.9229 561.347 61.6115Z" fill="#94A0C8"/>
<line x1="549.854" y1="28.2126" x2="539.249" y2="45.1169" stroke="url(#paint23_linear)" stroke-linecap="round"/>
<line x1="529.914" y1="23.3552" x2="531.846" y2="43.2171" stroke="url(#paint24_linear)" stroke-linecap="round"/>
<line x1="509.343" y1="34.7305" x2="525.924" y2="45.8356" stroke="url(#paint25_linear)" stroke-linecap="round"/>
<line x1="540.528" y1="58.2393" x2="557.108" y2="69.3444" stroke="url(#paint26_linear)" stroke-linecap="round"/>
<line x1="534.535" y1="59.6843" x2="536.467" y2="79.5462" stroke="url(#paint27_linear)" stroke-linecap="round"/>
<line x1="527.833" y1="59.7952" x2="517.228" y2="76.6996" stroke="url(#paint28_linear)" stroke-linecap="round"/>
<line x1="525.858" y1="53.5154" x2="506.057" y2="55.9904" stroke="url(#paint29_linear)" stroke-linecap="round"/>
<line x1="563.131" y1="48.3497" x2="543.329" y2="50.8246" stroke="url(#paint30_linear)" stroke-linecap="round"/>
<path d="M395.776 42.1993C395.174 41.1571 383.82 19.5398 384.862 18.9382C385.904 18.3365 398.948 38.9783 399.55 40.0204C400.151 41.0625 399.794 42.3951 398.752 42.9968C397.71 43.5985 396.378 43.2414 395.776 42.1993Z" fill="#94A0C8"/>
<path d="M369.255 -12.7581C369.856 -11.716 381.211 9.90132 380.169 10.503C379.126 11.1047 366.082 -9.5371 365.481 -10.5792C364.879 -11.6214 365.236 -12.9539 366.278 -13.5556C367.32 -14.1573 368.653 -13.8002 369.255 -12.7581Z" fill="#94A0C8"/>
<path d="M372.794 42.5831C373.105 41.4207 380.362 18.1063 381.524 18.4177C382.687 18.7292 377.314 42.5486 377.003 43.7109C376.691 44.8733 375.497 45.5631 374.334 45.2516C373.172 44.9402 372.482 43.7454 372.794 42.5831Z" fill="#94A0C8"/>
<path d="M354.432 28.33C355.475 27.7284 377.092 16.374 377.694 17.4162C378.295 18.4583 357.653 31.5023 356.611 32.1039C355.569 32.7056 354.237 32.3485 353.635 31.3064C353.033 30.2643 353.39 28.9317 354.432 28.33Z" fill="#94A0C8"/>
<path d="M410.861 0.782642C409.819 1.38432 388.202 12.7386 387.6 11.6965C386.998 10.6544 407.64 -2.38958 408.682 -2.99126C409.724 -3.59293 411.057 -3.23587 411.659 -2.19374C412.26 -1.15161 411.903 0.180966 410.861 0.782642Z" fill="#94A0C8"/>
<path d="M392.237 -13.1422C391.925 -11.9798 384.668 11.3346 383.506 11.0232C382.343 10.7117 387.716 -13.1077 388.027 -14.27C388.339 -15.4324 389.534 -16.1222 390.696 -15.8107C391.858 -15.4993 392.548 -14.3045 392.237 -13.1422Z" fill="#94A0C8"/>
<path d="M410.378 24.4422C409.216 24.1307 385.901 16.8737 386.213 15.7114C386.524 14.549 410.343 19.9215 411.506 20.2329C412.668 20.5444 413.358 21.7391 413.046 22.9015C412.735 24.0638 411.54 24.7536 410.378 24.4422Z" fill="#94A0C8"/>
<path d="M354.653 4.99923C355.815 5.31068 379.129 12.5677 378.818 13.73C378.507 14.8924 354.687 9.51991 353.525 9.20846C352.362 8.89701 351.673 7.70226 351.984 6.53991C352.296 5.37756 353.49 4.68777 354.653 4.99923Z" fill="#94A0C8"/>
<line x1="366.146" y1="38.3981" x2="376.751" y2="21.4938" stroke="url(#paint31_linear)" stroke-linecap="round"/>
<line x1="386.086" y1="43.2555" x2="384.154" y2="23.3936" stroke="url(#paint32_linear)" stroke-linecap="round"/>
<line x1="406.657" y1="31.8802" x2="390.076" y2="20.7751" stroke="url(#paint33_linear)" stroke-linecap="round"/>
<line x1="375.472" y1="8.37143" x2="358.892" y2="-2.7337" stroke="url(#paint34_linear)" stroke-linecap="round"/>
<line x1="381.465" y1="6.92638" x2="379.533" y2="-12.9355" stroke="url(#paint35_linear)" stroke-linecap="round"/>
<line x1="388.167" y1="6.81549" x2="398.772" y2="-10.0888" stroke="url(#paint36_linear)" stroke-linecap="round"/>
<line x1="390.142" y1="13.0953" x2="409.943" y2="10.6203" stroke="url(#paint37_linear)" stroke-linecap="round"/>
<line x1="352.869" y1="18.2611" x2="372.671" y2="15.7861" stroke="url(#paint38_linear)" stroke-linecap="round"/>
<path d="M2331.78 42.1993C2331.17 41.1571 2319.82 19.5398 2320.86 18.9382C2321.9 18.3365 2334.95 38.9783 2335.55 40.0204C2336.15 41.0625 2335.79 42.3951 2334.75 42.9968C2333.71 43.5985 2332.38 43.2414 2331.78 42.1993Z" fill="#94A0C8"/>
<path d="M2305.25 -12.7581C2305.86 -11.716 2317.21 9.90132 2316.17 10.503C2315.13 11.1047 2302.08 -9.5371 2301.48 -10.5792C2300.88 -11.6214 2301.24 -12.9539 2302.28 -13.5556C2303.32 -14.1573 2304.65 -13.8002 2305.25 -12.7581Z" fill="#94A0C8"/>
<path d="M2308.79 42.5831C2309.11 41.4207 2316.36 18.1063 2317.52 18.4177C2318.69 18.7292 2313.31 42.5486 2313 43.7109C2312.69 44.8733 2311.5 45.5631 2310.33 45.2516C2309.17 44.9402 2308.48 43.7454 2308.79 42.5831Z" fill="#94A0C8"/>
<path d="M2290.43 28.33C2291.47 27.7284 2313.09 16.374 2313.69 17.4162C2314.29 18.4583 2293.65 31.5023 2292.61 32.1039C2291.57 32.7056 2290.24 32.3485 2289.63 31.3064C2289.03 30.2643 2289.39 28.9317 2290.43 28.33Z" fill="#94A0C8"/>
<path d="M2346.86 0.782642C2345.82 1.38432 2324.2 12.7386 2323.6 11.6965C2323 10.6544 2343.64 -2.38958 2344.68 -2.99126C2345.72 -3.59293 2347.06 -3.23587 2347.66 -2.19374C2348.26 -1.15161 2347.9 0.180966 2346.86 0.782642Z" fill="#94A0C8"/>
<path d="M2328.24 -13.1422C2327.93 -11.9798 2320.67 11.3346 2319.51 11.0232C2318.34 10.7117 2323.72 -13.1077 2324.03 -14.27C2324.34 -15.4324 2325.53 -16.1222 2326.7 -15.8107C2327.86 -15.4993 2328.55 -14.3045 2328.24 -13.1422Z" fill="#94A0C8"/>
<path d="M2346.38 24.4422C2345.22 24.1307 2321.9 16.8737 2322.21 15.7114C2322.52 14.549 2346.34 19.9215 2347.51 20.2329C2348.67 20.5444 2349.36 21.7391 2349.05 22.9015C2348.73 24.0638 2347.54 24.7536 2346.38 24.4422Z" fill="#94A0C8"/>
<path d="M2290.65 4.99923C2291.82 5.31068 2315.13 12.5677 2314.82 13.73C2314.51 14.8924 2290.69 9.51991 2289.53 9.20846C2288.36 8.89701 2287.67 7.70226 2287.98 6.53991C2288.3 5.37756 2289.49 4.68777 2290.65 4.99923Z" fill="#94A0C8"/>
<line x1="2302.15" y1="38.3981" x2="2312.75" y2="21.4938" stroke="url(#paint39_linear)" stroke-linecap="round"/>
<line x1="2322.09" y1="43.2555" x2="2320.15" y2="23.3936" stroke="url(#paint40_linear)" stroke-linecap="round"/>
<line x1="2342.66" y1="31.8802" x2="2326.08" y2="20.7751" stroke="url(#paint41_linear)" stroke-linecap="round"/>
<line x1="2311.47" y1="8.37143" x2="2294.89" y2="-2.7337" stroke="url(#paint42_linear)" stroke-linecap="round"/>
<line x1="2317.47" y1="6.92638" x2="2315.53" y2="-12.9355" stroke="url(#paint43_linear)" stroke-linecap="round"/>
<line x1="2324.17" y1="6.81549" x2="2334.77" y2="-10.0888" stroke="url(#paint44_linear)" stroke-linecap="round"/>
<line x1="2326.14" y1="13.0953" x2="2345.94" y2="10.6203" stroke="url(#paint45_linear)" stroke-linecap="round"/>
<line x1="2288.87" y1="18.2611" x2="2308.67" y2="15.7861" stroke="url(#paint46_linear)" stroke-linecap="round"/>
<path d="M1651 26C1651 27.1046 1650.1 49.5 1649 49.5C1647.9 49.5 1647 27.1046 1647 26C1647 24.8954 1647.9 24 1649 24C1650.1 24 1651 24.8954 1651 26Z" fill="#94A0C8"/>
<path d="M1646.86 81.8596C1646.86 80.755 1647.75 58.3596 1648.86 58.3596C1649.96 58.3596 1650.86 80.755 1650.86 81.8596C1650.86 82.9642 1649.96 83.8596 1648.86 83.8596C1647.75 83.8596 1646.86 82.9642 1646.86 81.8596Z" fill="#94A0C8"/>
<path d="M1669.45 36.2426C1668.66 37.0237 1652.2 52.2265 1651.41 51.4454C1650.63 50.6644 1665.84 34.1953 1666.62 33.4142C1667.4 32.6332 1668.66 32.6332 1669.45 33.4142C1670.23 34.1953 1670.23 35.4616 1669.45 36.2426Z" fill="#94A0C8"/>
<path d="M1677.5 56C1676.4 56 1654 55.1046 1654 54C1654 52.8954 1676.4 52 1677.5 52C1678.6 52 1679.5 52.8954 1679.5 54C1679.5 55.1046 1678.6 56 1677.5 56Z" fill="#94A0C8"/>
<path d="M1620 52C1621.1 52 1643.5 52.8954 1643.5 54C1643.5 55.1046 1621.1 56 1620 56C1618.9 56 1618 55.1046 1618 54C1618 52.8954 1618.9 52 1620 52Z" fill="#94A0C8"/>
<path d="M1628.41 71.617C1629.19 70.8359 1645.66 55.6331 1646.45 56.4142C1647.23 57.1952 1632.02 73.6644 1631.24 74.4454C1630.46 75.2265 1629.19 75.2265 1628.41 74.4454C1627.63 73.6644 1627.63 72.398 1628.41 71.617Z" fill="#94A0C8"/>
<path d="M1631.24 33.4142C1632.02 34.1952 1647.23 50.6643 1646.45 51.4454C1645.66 52.2264 1629.2 37.0236 1628.41 36.2426C1627.63 35.4615 1627.63 34.1952 1628.41 33.4142C1629.2 32.6331 1630.46 32.6331 1631.24 33.4142Z" fill="#94A0C8"/>
<path d="M1666.62 74.4455C1665.84 73.6644 1650.63 57.1953 1651.41 56.4142C1652.19 55.6332 1668.66 70.836 1669.45 71.617C1670.23 72.3981 1670.23 73.6644 1669.45 74.4455C1668.66 75.2265 1667.4 75.2265 1666.62 74.4455Z" fill="#94A0C8"/>
<path d="M1665 59L1663.62 59.449L1663.62 60.9021L1662.76 59.7265L1661.38 60.1756L1662.24 59L1661.38 57.8244L1662.76 58.2735L1663.62 57.0979L1663.62 58.551L1665 59Z" fill="#94A0C8"/>
<path d="M1665 48L1663.62 48.449L1663.62 49.9021L1662.76 48.7265L1661.38 49.1756L1662.24 48L1661.38 46.8244L1662.76 47.2735L1663.62 46.0979L1663.62 47.551L1665 48Z" fill="#94A0C8"/>
<path d="M1657 39L1655.62 39.449L1655.62 40.9021L1654.76 39.7265L1653.38 40.1756L1654.24 39L1653.38 37.8244L1654.76 38.2735L1655.62 37.0979L1655.62 38.551L1657 39Z" fill="#94A0C8"/>
<path d="M1645 39L1643.62 39.449L1643.62 40.9021L1642.76 39.7265L1641.38 40.1756L1642.24 39L1641.38 37.8244L1642.76 38.2735L1643.62 37.0979L1643.62 38.551L1645 39Z" fill="#94A0C8"/>
<path d="M1637 48L1635.62 48.449L1635.62 49.9021L1634.76 48.7265L1633.38 49.1756L1634.24 48L1633.38 46.8244L1634.76 47.2735L1635.62 46.0979L1635.62 47.551L1637 48Z" fill="#94A0C8"/>
<path d="M1637 59L1635.62 59.449L1635.62 60.9021L1634.76 59.7265L1633.38 60.1756L1634.24 59L1633.38 57.8244L1634.76 58.2735L1635.62 57.0979L1635.62 58.551L1637 59Z" fill="#94A0C8"/>
<circle cx="1659" cy="31" r="3" fill="#94A0C8"/>
<circle cx="1672" cy="45" r="3" fill="#94A0C8"/>
<circle cx="1672" cy="63" r="3" fill="#94A0C8"/>
<circle cx="1625" cy="63" r="3" fill="#94A0C8"/>
<circle cx="1624" cy="45" r="3" fill="#94A0C8"/>
<circle cx="1640" cy="30" r="3" fill="#94A0C8"/>
<circle cx="594" cy="12" r="4" fill="white"/>
<circle cx="322" cy="54.6107" r="4" transform="rotate(-180 322 54.6107)" fill="white"/>
<circle cx="2258" cy="54.6107" r="4" transform="rotate(-180 2258 54.6107)" fill="white"/>
<circle cx="1815" cy="50" r="4" transform="rotate(-180 1815 50)" fill="#F1F4F8"/>
<circle cx="693" cy="35" r="4" fill="white"/>
<circle cx="223" cy="31.6107" r="4" transform="rotate(-180 223 31.6107)" fill="white"/>
<circle cx="2159" cy="31.6107" r="4" transform="rotate(-180 2159 31.6107)" fill="white"/>
<circle cx="476" cy="31.6107" r="4" transform="rotate(-180 476 31.6107)" fill="white"/>
<circle cx="1762" cy="45" r="4" transform="rotate(-180 1762 45)" fill="#F1F4F8"/>
<circle cx="879" cy="53" r="4" transform="rotate(-180 879 53)" fill="#F1F4F8" fill-opacity="0.6"/>
<circle cx="1520" cy="12" r="4" fill="#F1F4F8" fill-opacity="0.6"/>
<circle cx="999" cy="58" r="4" transform="rotate(-180 999 58)" fill="white" fill-opacity="0.5"/>
<circle cx="624" cy="53" r="4" fill="white" fill-opacity="0.5"/>
<circle cx="292" cy="13.6107" r="4" transform="rotate(-180 292 13.6107)" fill="white" fill-opacity="0.5"/>
<circle cx="2228" cy="13.6107" r="4" transform="rotate(-180 2228 13.6107)" fill="white" fill-opacity="0.5"/>
<circle opacity="0.6" cx="1785" cy="9" r="4" transform="rotate(-180 1785 9)" fill="white"/>
<circle cx="788" cy="23" r="4" fill="white"/>
<circle cx="128" cy="43.6107" r="4" transform="rotate(-180 128 43.6107)" fill="white"/>
<circle cx="2064" cy="43.6107" r="4" transform="rotate(-180 2064 43.6107)" fill="white"/>
<circle cx="1607" cy="16" r="4" transform="rotate(-180 1607 16)" fill="#F1F4F8"/>
<circle cx="849" cy="12" r="4" transform="rotate(-180 849 12)" fill="white"/>
<circle cx="67" cy="54.6107" r="4" fill="white"/>
<circle cx="1967" cy="50" r="4" fill="white"/>
<circle opacity="0.5" cx="1560" cy="50" r="4" fill="white"/>
<circle opacity="0.8" cx="939" cy="7" r="4" transform="rotate(-180 939 7)" fill="white"/>
<circle cx="620" cy="40" r="3" fill="white"/>
<circle cx="296" cy="26.6107" r="3" transform="rotate(-180 296 26.6107)" fill="white"/>
<circle cx="2232" cy="26.6107" r="3" transform="rotate(-180 2232 26.6107)" fill="white"/>
<circle cx="1789" cy="22" r="3" transform="rotate(-180 1789 22)" fill="#F1F4F8" fill-opacity="0.5"/>
<circle cx="521" cy="8" r="3" fill="white" fill-opacity="0.7"/>
<circle cx="395" cy="58.6107" r="3" transform="rotate(-180 395 58.6107)" fill="white" fill-opacity="0.7"/>
<circle cx="2331" cy="58.6107" r="3" transform="rotate(-180 2331 58.6107)" fill="white" fill-opacity="0.7"/>
<circle opacity="0.7" cx="1894" cy="43" r="3" transform="rotate(-180 1894 43)" fill="white"/>
<circle cx="853" cy="25" r="3" transform="rotate(-180 853 25)" fill="#F1F4F8" fill-opacity="0.6"/>
<circle cx="63" cy="41.6107" r="3" fill="#F1F4F8" fill-opacity="0.6"/>
<circle cx="1999" cy="41.6107" r="3" fill="#F1F4F8" fill-opacity="0.6"/>
<circle cx="1523" cy="48" r="3" fill="#F1F4F8"/>
<circle opacity="0.8" cx="735" cy="15" r="3" fill="white"/>
<circle opacity="0.8" cx="181" cy="51.6107" r="3" transform="rotate(-180 181 51.6107)" fill="white"/>
<circle opacity="0.8" cx="2117" cy="51.6107" r="3" transform="rotate(-180 2117 51.6107)" fill="white"/>
<circle opacity="0.8" cx="434" cy="51.6107" r="3" transform="rotate(-180 434 51.6107)" fill="white"/>
<circle opacity="0.8" cx="2370" cy="51.6107" r="3" transform="rotate(-180 2370 51.6107)" fill="white"/>
<circle cx="1712" cy="18" r="3" transform="rotate(-180 1712 18)" fill="white"/>
<circle cx="1282" cy="10" r="3" transform="rotate(-180 1282 10)" fill="#F1F4F8"/>
<circle opacity="0.8" cx="738" cy="50" r="3" transform="rotate(-180 738 50)" fill="white"/>
<circle opacity="0.8" cx="178" cy="16.6107" r="3" fill="white"/>
<circle opacity="0.8" cx="2114" cy="16.6107" r="3" fill="white"/>
<circle opacity="0.8" cx="431" cy="16.6107" r="3" fill="white"/>
<circle opacity="0.8" cx="2367" cy="16.6107" r="3" fill="white"/>
<circle opacity="0.6" cx="1671" cy="12" r="3" fill="white"/>
<circle opacity="0.6" cx="1224" cy="20" r="3" fill="white"/>
<circle cx="856" cy="49" r="3" transform="rotate(-180 856 49)" fill="#F1F4F8"/>
<circle cx="60" cy="17.6107" r="3" fill="#F1F4F8"/>
<circle cx="1996" cy="17.6107" r="3" fill="#F1F4F8"/>
<circle cx="1553" cy="13" r="3" fill="#F1F4F8"/>
<circle opacity="0.7" cx="1057" cy="8" r="2" fill="white"/>
<circle opacity="0.7" cx="1151" cy="58" r="2" fill="white"/>
<circle opacity="0.7" cx="1407" cy="56" r="2" fill="#F1F4F8"/>
<circle opacity="0.7" cx="1271" cy="50" r="2" fill="white"/>
<circle opacity="0.7" cx="1140" cy="5" r="2" fill="white"/>
<circle opacity="0.7" cx="1346" cy="5" r="2" fill="#F1F4F8"/>
<path d="M1929.86 28.8596C1929.86 27.755 1930.75 5.35962 1931.86 5.35962C1932.96 5.35962 1933.86 27.755 1933.86 28.8596C1933.86 29.9642 1932.96 30.8596 1931.86 30.8596C1930.75 30.8596 1929.86 29.9642 1929.86 28.8596Z" fill="#94A0C8"/>
<path d="M1960.5 3C1959.4 3 1937 2.10457 1937 0.999999C1937 -0.104571 1959.4 -1 1960.5 -1C1961.6 -1 1962.5 -0.10457 1962.5 1C1962.5 2.10457 1961.6 3 1960.5 3Z" fill="#94A0C8"/>
<path d="M1903 -1C1904.1 -1 1926.5 -0.104569 1926.5 1C1926.5 2.10457 1904.1 3 1903 3C1901.9 3 1901 2.10457 1901 1C1901 -0.10457 1901.9 -1 1903 -1Z" fill="#94A0C8"/>
<path d="M1911.41 18.617C1912.19 17.8359 1928.66 2.63314 1929.45 3.41418C1930.23 4.19523 1915.02 20.6644 1914.24 21.4454C1913.46 22.2265 1912.19 22.2265 1911.41 21.4454C1910.63 20.6644 1910.63 19.398 1911.41 18.617Z" fill="#94A0C8"/>
<path d="M1949.62 21.4455C1948.84 20.6644 1933.63 4.19529 1934.41 3.41424C1935.19 2.63319 1951.66 17.836 1952.45 18.617C1953.23 19.3981 1953.23 20.6644 1952.45 21.4455C1951.66 22.2265 1950.4 22.2265 1949.62 21.4455Z" fill="#94A0C8"/>
<path d="M1948 6L1946.62 6.44903L1946.62 7.90211L1945.76 6.72654L1944.38 7.17557L1945.24 6L1944.38 4.82443L1945.76 5.27346L1946.62 4.09789L1946.62 5.55097L1948 6Z" fill="#94A0C8"/>
<path d="M1920 6L1918.62 6.44903L1918.62 7.90211L1917.76 6.72654L1916.38 7.17557L1917.24 6L1916.38 4.82443L1917.76 5.27346L1918.62 4.09789L1918.62 5.55097L1920 6Z" fill="#94A0C8"/>
<path d="M1929 14L1927.62 14.449L1927.62 15.9021L1926.76 14.7265L1925.38 15.1756L1926.24 14L1925.38 12.8244L1926.76 13.2735L1927.62 12.0979L1927.62 13.551L1929 14Z" fill="#94A0C8"/>
<path d="M1940 14L1938.62 14.449L1938.62 15.9021L1937.76 14.7265L1936.38 15.1756L1937.24 14L1936.38 12.8244L1937.76 13.2735L1938.62 12.0979L1938.62 13.551L1940 14Z" fill="#94A0C8"/>
<circle cx="1955" cy="10" r="3" fill="#94A0C8"/>
<circle cx="1940" cy="23" r="3" fill="#94A0C8"/>
<circle cx="1922" cy="23" r="3" fill="#94A0C8"/>
<circle cx="1908" cy="10" r="3" fill="#94A0C8"/>
</g>
<defs>
<linearGradient id="paint0_linear" x1="1452.51" y1="14.4072" x2="1453.13" y2="0.908107" gradientUnits="userSpaceOnUse">
<stop stop-color="#94A0C8" stop-opacity="0"/>
<stop offset="0.505208" stop-color="#94A0C8"/>
<stop offset="1" stop-color="#94A0C8" stop-opacity="0"/>
</linearGradient>
<linearGradient id="paint1_linear" x1="1440.15" y1="6.45066" x2="1450.98" y2="-1.63681" gradientUnits="userSpaceOnUse">
<stop stop-color="#94A0C8" stop-opacity="0"/>
<stop offset="0.505208" stop-color="#94A0C8"/>
<stop offset="1" stop-color="#94A0C8" stop-opacity="0"/>
</linearGradient>
<linearGradient id="paint2_linear" x1="1457.67" y1="0.944224" x2="1466.05" y2="11.5446" gradientUnits="userSpaceOnUse">
<stop stop-color="#94A0C8" stop-opacity="0"/>
<stop offset="0.505208" stop-color="#94A0C8"/>
<stop offset="1" stop-color="#94A0C8" stop-opacity="0"/>
</linearGradient>
<linearGradient id="paint3_linear" x1="836.941" y1="65.0783" x2="847.483" y2="59.1741" gradientUnits="userSpaceOnUse">
<stop stop-color="#94A0C8" stop-opacity="0"/>
<stop offset="0.505208" stop-color="#94A0C8"/>
<stop offset="1" stop-color="#94A0C8" stop-opacity="0"/>
</linearGradient>
<linearGradient id="paint4_linear" x1="834.075" y1="61.9141" x2="838.813" y2="50.799" gradientUnits="userSpaceOnUse">
<stop stop-color="#94A0C8" stop-opacity="0"/>
<stop offset="0.505208" stop-color="#94A0C8"/>
<stop offset="1" stop-color="#94A0C8" stop-opacity="0"/>
</linearGradient>
<linearGradient id="paint5_linear" x1="830.52" y1="61.1825" x2="824.933" y2="50.4685" gradientUnits="userSpaceOnUse">
<stop stop-color="#94A0C8" stop-opacity="0"/>
<stop offset="0.505208" stop-color="#94A0C8"/>
<stop offset="1" stop-color="#94A0C8" stop-opacity="0"/>
</linearGradient>
<linearGradient id="paint6_linear" x1="817.213" y1="60.9185" x2="828.453" y2="65.3514" gradientUnits="userSpaceOnUse">
<stop stop-color="#94A0C8" stop-opacity="0"/>
<stop offset="0.505208" stop-color="#94A0C8"/>
<stop offset="1" stop-color="#94A0C8" stop-opacity="0"/>
</linearGradient>
<linearGradient id="paint7_linear" x1="79.059" y1="1.53246" x2="68.5165" y2="7.43661" gradientUnits="userSpaceOnUse">
<stop stop-color="#94A0C8" stop-opacity="0"/>
<stop offset="0.505208" stop-color="#94A0C8"/>
<stop offset="1" stop-color="#94A0C8" stop-opacity="0"/>
</linearGradient>
<linearGradient id="paint8_linear" x1="81.9254" y1="4.69657" x2="77.1867" y2="15.8117" gradientUnits="userSpaceOnUse">
<stop stop-color="#94A0C8" stop-opacity="0"/>
<stop offset="0.505208" stop-color="#94A0C8"/>
<stop offset="1" stop-color="#94A0C8" stop-opacity="0"/>
</linearGradient>
<linearGradient id="paint9_linear" x1="85.4798" y1="5.4282" x2="91.0665" y2="16.1422" gradientUnits="userSpaceOnUse">
<stop stop-color="#94A0C8" stop-opacity="0"/>
<stop offset="0.505208" stop-color="#94A0C8"/>
<stop offset="1" stop-color="#94A0C8" stop-opacity="0"/>
</linearGradient>
<linearGradient id="paint10_linear" x1="98.7872" y1="5.69222" x2="87.5466" y2="1.25936" gradientUnits="userSpaceOnUse">
<stop stop-color="#94A0C8" stop-opacity="0"/>
<stop offset="0.505208" stop-color="#94A0C8"/>
<stop offset="1" stop-color="#94A0C8" stop-opacity="0"/>
</linearGradient>
<linearGradient id="paint11_linear" x1="2015.06" y1="1.53246" x2="2004.52" y2="7.43661" gradientUnits="userSpaceOnUse">
<stop stop-color="#94A0C8" stop-opacity="0"/>
<stop offset="0.505208" stop-color="#94A0C8"/>
<stop offset="1" stop-color="#94A0C8" stop-opacity="0"/>
</linearGradient>
<linearGradient id="paint12_linear" x1="2017.93" y1="4.69657" x2="2013.19" y2="15.8117" gradientUnits="userSpaceOnUse">
<stop stop-color="#94A0C8" stop-opacity="0"/>
<stop offset="0.505208" stop-color="#94A0C8"/>
<stop offset="1" stop-color="#94A0C8" stop-opacity="0"/>
</linearGradient>
<linearGradient id="paint13_linear" x1="2021.48" y1="5.4282" x2="2027.07" y2="16.1422" gradientUnits="userSpaceOnUse">
<stop stop-color="#94A0C8" stop-opacity="0"/>
<stop offset="0.505208" stop-color="#94A0C8"/>
<stop offset="1" stop-color="#94A0C8" stop-opacity="0"/>
</linearGradient>
<linearGradient id="paint14_linear" x1="2034.79" y1="5.69222" x2="2023.55" y2="1.25936" gradientUnits="userSpaceOnUse">
<stop stop-color="#94A0C8" stop-opacity="0"/>
<stop offset="0.505208" stop-color="#94A0C8"/>
<stop offset="1" stop-color="#94A0C8" stop-opacity="0"/>
</linearGradient>
<linearGradient id="paint15_linear" x1="898.941" y1="24.205" x2="909.483" y2="18.3008" gradientUnits="userSpaceOnUse">
<stop stop-color="#94A0C8" stop-opacity="0"/>
<stop offset="0.505208" stop-color="#94A0C8"/>
<stop offset="1" stop-color="#94A0C8" stop-opacity="0"/>
</linearGradient>
<linearGradient id="paint16_linear" x1="896.075" y1="21.0409" x2="900.813" y2="9.92571" gradientUnits="userSpaceOnUse">
<stop stop-color="#94A0C8" stop-opacity="0"/>
<stop offset="0.505208" stop-color="#94A0C8"/>
<stop offset="1" stop-color="#94A0C8" stop-opacity="0"/>
</linearGradient>
<linearGradient id="paint17_linear" x1="892.52" y1="20.3092" x2="886.933" y2="9.59523" gradientUnits="userSpaceOnUse">
<stop stop-color="#94A0C8" stop-opacity="0"/>
<stop offset="0.505208" stop-color="#94A0C8"/>
<stop offset="1" stop-color="#94A0C8" stop-opacity="0"/>
</linearGradient>
<linearGradient id="paint18_linear" x1="901.171" y1="40.6995" x2="895.584" y2="29.9855" gradientUnits="userSpaceOnUse">
<stop stop-color="#94A0C8" stop-opacity="0"/>
<stop offset="0.505208" stop-color="#94A0C8"/>
<stop offset="1" stop-color="#94A0C8" stop-opacity="0"/>
</linearGradient>
<linearGradient id="paint19_linear" x1="888.042" y1="40.1953" x2="892.781" y2="29.0801" gradientUnits="userSpaceOnUse">
<stop stop-color="#94A0C8" stop-opacity="0"/>
<stop offset="0.505208" stop-color="#94A0C8"/>
<stop offset="1" stop-color="#94A0C8" stop-opacity="0"/>
</linearGradient>
<linearGradient id="paint20_linear" x1="879.169" y1="33.4733" x2="889.711" y2="27.5691" gradientUnits="userSpaceOnUse">
<stop stop-color="#94A0C8" stop-opacity="0"/>
<stop offset="0.505208" stop-color="#94A0C8"/>
<stop offset="1" stop-color="#94A0C8" stop-opacity="0"/>
</linearGradient>
<linearGradient id="paint21_linear" x1="879.213" y1="20.0452" x2="890.453" y2="24.4781" gradientUnits="userSpaceOnUse">
<stop stop-color="#94A0C8" stop-opacity="0"/>
<stop offset="0.505208" stop-color="#94A0C8"/>
<stop offset="1" stop-color="#94A0C8" stop-opacity="0"/>
</linearGradient>
<linearGradient id="paint22_linear" x1="898.985" y1="28.0778" x2="910.226" y2="32.5107" gradientUnits="userSpaceOnUse">
<stop stop-color="#94A0C8" stop-opacity="0"/>
<stop offset="0.505208" stop-color="#94A0C8"/>
<stop offset="1" stop-color="#94A0C8" stop-opacity="0"/>
</linearGradient>
<linearGradient id="paint23_linear" x1="539.286" y1="45.3904" x2="549.841" y2="26.8988" gradientUnits="userSpaceOnUse">
<stop stop-color="#94A0C8" stop-opacity="0"/>
<stop offset="0.505208" stop-color="#94A0C8"/>
<stop offset="1" stop-color="#94A0C8" stop-opacity="0"/>
</linearGradient>
<linearGradient id="paint24_linear" x1="532.043" y1="43.4105" x2="529.101" y2="22.3228" gradientUnits="userSpaceOnUse">
<stop stop-color="#94A0C8" stop-opacity="0"/>
<stop offset="0.505208" stop-color="#94A0C8"/>
<stop offset="1" stop-color="#94A0C8" stop-opacity="0"/>
</linearGradient>
<linearGradient id="paint25_linear" x1="526.198" y1="45.8061" x2="508.03" y2="34.7037" gradientUnits="userSpaceOnUse">
<stop stop-color="#94A0C8" stop-opacity="0"/>
<stop offset="0.505208" stop-color="#94A0C8"/>
<stop offset="1" stop-color="#94A0C8" stop-opacity="0"/>
</linearGradient>
<linearGradient id="paint26_linear" x1="557.382" y1="69.3149" x2="539.214" y2="58.2125" gradientUnits="userSpaceOnUse">
<stop stop-color="#94A0C8" stop-opacity="0"/>
<stop offset="0.505208" stop-color="#94A0C8"/>
<stop offset="1" stop-color="#94A0C8" stop-opacity="0"/>
</linearGradient>
<linearGradient id="paint27_linear" x1="536.664" y1="79.7396" x2="533.722" y2="58.6519" gradientUnits="userSpaceOnUse">
<stop stop-color="#94A0C8" stop-opacity="0"/>
<stop offset="0.505208" stop-color="#94A0C8"/>
<stop offset="1" stop-color="#94A0C8" stop-opacity="0"/>
</linearGradient>
<linearGradient id="paint28_linear" x1="517.266" y1="76.973" x2="527.821" y2="58.4815" gradientUnits="userSpaceOnUse">
<stop stop-color="#94A0C8" stop-opacity="0"/>
<stop offset="0.505208" stop-color="#94A0C8"/>
<stop offset="1" stop-color="#94A0C8" stop-opacity="0"/>
</linearGradient>
<linearGradient id="paint29_linear" x1="505.869" y1="56.1926" x2="526.868" y2="52.6749" gradientUnits="userSpaceOnUse">
<stop stop-color="#94A0C8" stop-opacity="0"/>
<stop offset="0.505208" stop-color="#94A0C8"/>
<stop offset="1" stop-color="#94A0C8" stop-opacity="0"/>
</linearGradient>
<linearGradient id="paint30_linear" x1="543.141" y1="51.0268" x2="564.141" y2="47.5092" gradientUnits="userSpaceOnUse">
<stop stop-color="#94A0C8" stop-opacity="0"/>
<stop offset="0.505208" stop-color="#94A0C8"/>
<stop offset="1" stop-color="#94A0C8" stop-opacity="0"/>
</linearGradient>
<linearGradient id="paint31_linear" x1="376.714" y1="21.2203" x2="366.159" y2="39.7119" gradientUnits="userSpaceOnUse">
<stop stop-color="#94A0C8" stop-opacity="0"/>
<stop offset="0.505208" stop-color="#94A0C8"/>
<stop offset="1" stop-color="#94A0C8" stop-opacity="0"/>
</linearGradient>
<linearGradient id="paint32_linear" x1="383.957" y1="23.2002" x2="386.899" y2="44.2879" gradientUnits="userSpaceOnUse">
<stop stop-color="#94A0C8" stop-opacity="0"/>
<stop offset="0.505208" stop-color="#94A0C8"/>
<stop offset="1" stop-color="#94A0C8" stop-opacity="0"/>
</linearGradient>
<linearGradient id="paint33_linear" x1="389.802" y1="20.8046" x2="407.97" y2="31.907" gradientUnits="userSpaceOnUse">
<stop stop-color="#94A0C8" stop-opacity="0"/>
<stop offset="0.505208" stop-color="#94A0C8"/>
<stop offset="1" stop-color="#94A0C8" stop-opacity="0"/>
</linearGradient>
<linearGradient id="paint34_linear" x1="358.618" y1="-2.70417" x2="376.786" y2="8.39819" gradientUnits="userSpaceOnUse">
<stop stop-color="#94A0C8" stop-opacity="0"/>
<stop offset="0.505208" stop-color="#94A0C8"/>
<stop offset="1" stop-color="#94A0C8" stop-opacity="0"/>
</linearGradient>
<linearGradient id="paint35_linear" x1="379.336" y1="-13.1289" x2="382.278" y2="7.9588" gradientUnits="userSpaceOnUse">
<stop stop-color="#94A0C8" stop-opacity="0"/>
<stop offset="0.505208" stop-color="#94A0C8"/>
<stop offset="1" stop-color="#94A0C8" stop-opacity="0"/>
</linearGradient>
<linearGradient id="paint36_linear" x1="398.734" y1="-10.3623" x2="388.179" y2="8.12926" gradientUnits="userSpaceOnUse">
<stop stop-color="#94A0C8" stop-opacity="0"/>
<stop offset="0.505208" stop-color="#94A0C8"/>
<stop offset="1" stop-color="#94A0C8" stop-opacity="0"/>
</linearGradient>
<linearGradient id="paint37_linear" x1="410.131" y1="10.4181" x2="389.132" y2="13.9358" gradientUnits="userSpaceOnUse">
<stop stop-color="#94A0C8" stop-opacity="0"/>
<stop offset="0.505208" stop-color="#94A0C8"/>
<stop offset="1" stop-color="#94A0C8" stop-opacity="0"/>
</linearGradient>
<linearGradient id="paint38_linear" x1="372.859" y1="15.5839" x2="351.859" y2="19.1015" gradientUnits="userSpaceOnUse">
<stop stop-color="#94A0C8" stop-opacity="0"/>
<stop offset="0.505208" stop-color="#94A0C8"/>
<stop offset="1" stop-color="#94A0C8" stop-opacity="0"/>
</linearGradient>
<linearGradient id="paint39_linear" x1="2312.71" y1="21.2203" x2="2302.16" y2="39.7119" gradientUnits="userSpaceOnUse">
<stop stop-color="#94A0C8" stop-opacity="0"/>
<stop offset="0.505208" stop-color="#94A0C8"/>
<stop offset="1" stop-color="#94A0C8" stop-opacity="0"/>
</linearGradient>
<linearGradient id="paint40_linear" x1="2319.96" y1="23.2002" x2="2322.9" y2="44.2879" gradientUnits="userSpaceOnUse">
<stop stop-color="#94A0C8" stop-opacity="0"/>
<stop offset="0.505208" stop-color="#94A0C8"/>
<stop offset="1" stop-color="#94A0C8" stop-opacity="0"/>
</linearGradient>
<linearGradient id="paint41_linear" x1="2325.8" y1="20.8046" x2="2343.97" y2="31.907" gradientUnits="userSpaceOnUse">
<stop stop-color="#94A0C8" stop-opacity="0"/>
<stop offset="0.505208" stop-color="#94A0C8"/>
<stop offset="1" stop-color="#94A0C8" stop-opacity="0"/>
</linearGradient>
<linearGradient id="paint42_linear" x1="2294.62" y1="-2.70417" x2="2312.79" y2="8.39819" gradientUnits="userSpaceOnUse">
<stop stop-color="#94A0C8" stop-opacity="0"/>
<stop offset="0.505208" stop-color="#94A0C8"/>
<stop offset="1" stop-color="#94A0C8" stop-opacity="0"/>
</linearGradient>
<linearGradient id="paint43_linear" x1="2315.34" y1="-13.1289" x2="2318.28" y2="7.9588" gradientUnits="userSpaceOnUse">
<stop stop-color="#94A0C8" stop-opacity="0"/>
<stop offset="0.505208" stop-color="#94A0C8"/>
<stop offset="1" stop-color="#94A0C8" stop-opacity="0"/>
</linearGradient>
<linearGradient id="paint44_linear" x1="2334.73" y1="-10.3623" x2="2324.18" y2="8.12926" gradientUnits="userSpaceOnUse">
<stop stop-color="#94A0C8" stop-opacity="0"/>
<stop offset="0.505208" stop-color="#94A0C8"/>
<stop offset="1" stop-color="#94A0C8" stop-opacity="0"/>
</linearGradient>
<linearGradient id="paint45_linear" x1="2346.13" y1="10.4181" x2="2325.13" y2="13.9358" gradientUnits="userSpaceOnUse">
<stop stop-color="#94A0C8" stop-opacity="0"/>
<stop offset="0.505208" stop-color="#94A0C8"/>
<stop offset="1" stop-color="#94A0C8" stop-opacity="0"/>
</linearGradient>
<linearGradient id="paint46_linear" x1="2308.86" y1="15.5839" x2="2287.86" y2="19.1015" gradientUnits="userSpaceOnUse">
<stop stop-color="#94A0C8" stop-opacity="0"/>
<stop offset="0.505208" stop-color="#94A0C8"/>
<stop offset="1" stop-color="#94A0C8" stop-opacity="0"/>
</linearGradient>
<clipPath id="clip0">
<rect width="2450" height="64" fill="white"/>
</clipPath>
</defs>
</svg>
