<svg width="32" height="32" viewBox="0 0 32 32" fill="none" xmlns="http://www.w3.org/2000/svg">
<circle opacity="0.5" cx="16" cy="16" r="16" fill="white"/>
<path fill-rule="evenodd" clip-rule="evenodd" d="M17.4141 16L21.7071 11.707C22.0981 11.316 22.0981 10.684 21.7071 10.293C21.3161 9.90201 20.6841 9.90201 20.2931 10.293L16.0001 14.586L11.7071 10.293C11.3161 9.90201 10.6841 9.90201 10.2931 10.293C9.90213 10.684 9.90213 11.316 10.2931 11.707L14.5861 16L10.2931 20.293C9.90213 20.684 9.90213 21.316 10.2931 21.707C10.4881 21.902 10.7441 22 11.0001 22C11.2561 22 11.5121 21.902 11.7071 21.707L16.0001 17.414L20.2931 21.707C20.4881 21.902 20.7441 22 21.0001 22C21.2561 22 21.5121 21.902 21.7071 21.707C22.0981 21.316 22.0981 20.684 21.7071 20.293L17.4141 16Z" fill="white"/>
</svg>
