<svg width="18" height="21" viewBox="0 0 18 21" fill="none" xmlns="http://www.w3.org/2000/svg">
<path d="M17.52 13.21L15.72 11.4V6.94C15.744 5.28382 15.1679 3.67491 14.0981 2.41034C13.0284 1.14576 11.5372 0.310936 9.90001 0.0600011C8.94982 -0.0651318 7.98388 0.013816 7.06662 0.291577C6.14936 0.569337 5.30188 1.03952 4.58074 1.67076C3.85959 2.302 3.28136 3.07978 2.88462 3.9522C2.48788 4.82461 2.28176 5.77161 2.28001 6.73V11.4L0.480012 13.21C0.253918 13.4399 0.100596 13.7313 0.0392123 14.0478C-0.022171 14.3643 0.0111083 14.6919 0.13489 14.9896C0.258671 15.2874 0.467463 15.542 0.735163 15.7217C1.00286 15.9014 1.31759 15.9982 1.64001 16H5.00001V16.34C5.04672 17.3552 5.49396 18.3105 6.24374 18.9965C6.99351 19.6826 7.98467 20.0434 9.00001 20C10.0154 20.0434 11.0065 19.6826 11.7563 18.9965C12.5061 18.3105 12.9533 17.3552 13 16.34V16H16.36C16.6824 15.9982 16.9972 15.9014 17.2649 15.7217C17.5326 15.542 17.7414 15.2874 17.8651 14.9896C17.9889 14.6919 18.0222 14.3643 17.9608 14.0478C17.8994 13.7313 17.7461 13.4399 17.52 13.21ZM11 16.34C10.9446 16.821 10.7057 17.2621 10.3331 17.5713C9.96051 17.8805 9.483 18.0341 9.00001 18C8.51703 18.0341 8.03951 17.8805 7.66694 17.5713C7.29437 17.2621 7.05547 16.821 7.00001 16.34V16H11V16.34ZM2.51001 14L3.69001 12.82C3.87718 12.6339 4.02567 12.4127 4.12694 12.169C4.2282 11.9253 4.28022 11.6639 4.28001 11.4V6.73C4.28056 6.0554 4.4254 5.38872 4.70481 4.77471C4.98422 4.1607 5.39174 3.61355 5.90001 3.17C6.40143 2.71568 6.99559 2.37575 7.64135 2.17373C8.28712 1.97172 8.96907 1.91244 9.64001 2C10.7965 2.18778 11.8462 2.78701 12.5959 3.68738C13.3456 4.58775 13.7448 5.72864 13.72 6.9V11.4C13.7185 11.6632 13.7689 11.9241 13.8685 12.1678C13.968 12.4115 14.1146 12.6331 14.3 12.82L15.49 14H2.51001Z" fill="white"/>
</svg>
