<svg width="160" height="48" viewBox="0 0 160 48" fill="none" xmlns="http://www.w3.org/2000/svg">
<rect x="0.5" y="0.5" width="159" height="47" rx="3.5" stroke="#326CA5"/>
<path d="M17.2583 10L30.0816 23.0955L33.5977 19.4787L18.0542 10.2473C17.8128 10.0984 17.5394 10.0135 17.2583 10ZM16.1848 10.6091C16.0618 10.836 15.9982 11.0918 16 11.3516V36.8001C16 37.0047 16.0415 37.1881 16.1114 37.3519L29.2307 23.9519L16.1848 10.6091ZM34.6712 20.1073L30.9147 23.9519L34.6706 27.7782L39.2597 25.075C39.9122 24.6871 40.0046 24.1949 39.9998 23.933C39.9933 23.5005 39.7275 23.0955 39.2786 22.8482C38.8878 22.6314 35.9846 20.8924 34.6706 20.1073H34.6712ZM30.0822 24.8083L17.1464 38C17.3801 37.9924 17.6086 37.927 17.8126 37.8094L28.5639 31.4139L33.6154 28.4257L30.0822 24.8083Z" fill="#326CA5"/>
<path d="M48.0645 14.8989H48.6714C49.1906 13.95 49.6257 12.8848 49.9766 11.7031C50.3275 10.5215 50.5531 9.33626 50.6533 8.14746H54.7085V14.8989H55.7236V18.1646H54.4883V16H49.2998V18.1646H48.0645V14.8989ZM51.7275 9.25928C51.6488 10.0721 51.4482 11.0156 51.126 12.0898C50.8037 13.1605 50.4367 14.0968 50.0249 14.8989H53.4248V9.25928H51.7275Z" fill="#326CA5"/>
<path d="M62.1313 13.019C62.1313 13.9894 61.8825 14.7467 61.3848 15.291C60.887 15.8353 60.1942 16.1074 59.3062 16.1074C58.7511 16.1074 58.2606 15.9821 57.8345 15.7314C57.4084 15.4808 57.0807 15.1209 56.8516 14.6519C56.6224 14.1828 56.5078 13.6385 56.5078 13.019C56.5078 12.0558 56.7549 11.3039 57.249 10.7632C57.7432 10.2225 58.4396 9.95215 59.3384 9.95215C60.1978 9.95215 60.8781 10.2297 61.3794 10.7847C61.8807 11.3361 62.1313 12.0809 62.1313 13.019ZM57.8076 13.019C57.8076 14.3905 58.3143 15.0762 59.3276 15.0762C60.3302 15.0762 60.8315 14.3905 60.8315 13.019C60.8315 11.6619 60.3267 10.9834 59.3169 10.9834C58.7869 10.9834 58.402 11.1589 58.1621 11.5098C57.9258 11.8607 57.8076 12.3638 57.8076 13.019Z" fill="#326CA5"/>
<path d="M65.9824 16.1074C65.0837 16.1074 64.3997 15.846 63.9307 15.3232C63.4652 14.7969 63.2324 14.0431 63.2324 13.062C63.2324 12.063 63.4759 11.2949 63.9629 10.7578C64.4535 10.2207 65.1606 9.95215 66.0845 9.95215C66.7111 9.95215 67.2751 10.0685 67.7764 10.3013L67.395 11.3164C66.8615 11.1087 66.4211 11.0049 66.0737 11.0049C65.0461 11.0049 64.5322 11.687 64.5322 13.0513C64.5322 13.7173 64.6593 14.2186 64.9136 14.5552C65.1714 14.8882 65.5474 15.0547 66.0415 15.0547C66.6037 15.0547 67.1354 14.915 67.6367 14.6357V15.7368C67.4111 15.8693 67.1694 15.9642 66.9116 16.0215C66.6574 16.0788 66.3477 16.1074 65.9824 16.1074Z" fill="#326CA5"/>
<path d="M73.4966 10.0596V11.0479H71.563V16H70.2954V11.0479H68.3618V10.0596H73.4966Z" fill="#326CA5"/>
<path d="M73.7383 10.0596H75.1133L76.3218 13.4272C76.5044 13.9071 76.6261 14.3582 76.687 14.7808H76.73C76.7622 14.5838 76.8213 14.3457 76.9072 14.0664C76.9932 13.7835 77.4479 12.4479 78.2715 10.0596H79.6357L77.0952 16.7896C76.6333 18.0249 75.8634 18.6426 74.7856 18.6426C74.5063 18.6426 74.2342 18.6121 73.9692 18.5513V17.5522C74.159 17.5952 74.3757 17.6167 74.6191 17.6167C75.2279 17.6167 75.6558 17.264 75.9028 16.5586L76.123 16L73.7383 10.0596Z" fill="#326CA5"/>
<path d="M85.7319 10.0596V16H84.4644V11.0586H81.8003V16H80.5381V10.0596H85.7319Z" fill="#326CA5"/>
<path d="M88.8042 10.0596V12.4443H91.6025V10.0596H92.8647V16H91.6025V13.438H88.8042V16H87.542V10.0596H88.8042Z" fill="#326CA5"/>
<path d="M99.9438 13.019C99.9438 13.9894 99.695 14.7467 99.1973 15.291C98.6995 15.8353 98.0067 16.1074 97.1187 16.1074C96.5636 16.1074 96.0731 15.9821 95.647 15.7314C95.2209 15.4808 94.8932 15.1209 94.6641 14.6519C94.4349 14.1828 94.3203 13.6385 94.3203 13.019C94.3203 12.0558 94.5674 11.3039 95.0615 10.7632C95.5557 10.2225 96.2521 9.95215 97.1509 9.95215C98.0103 9.95215 98.6906 10.2297 99.1919 10.7847C99.6932 11.3361 99.9438 12.0809 99.9438 13.019ZM95.6201 13.019C95.6201 14.3905 96.1268 15.0762 97.1401 15.0762C98.1427 15.0762 98.644 14.3905 98.644 13.019C98.644 11.6619 98.1392 10.9834 97.1294 10.9834C96.5994 10.9834 96.2145 11.1589 95.9746 11.5098C95.7383 11.8607 95.6201 12.3638 95.6201 13.019Z" fill="#326CA5"/>
<path d="M109.413 11.5796C109.413 12.2814 109.003 12.7057 108.183 12.8525V12.8955C108.641 12.9492 108.992 13.0942 109.236 13.3306C109.479 13.5669 109.601 13.873 109.601 14.249C109.601 14.8112 109.386 15.2445 108.957 15.5488C108.53 15.8496 107.909 16 107.093 16H104.257V10.0596H107.082C108.636 10.0596 109.413 10.5662 109.413 11.5796ZM108.307 14.1738C108.307 13.8874 108.196 13.6851 107.974 13.5669C107.752 13.4451 107.419 13.3843 106.975 13.3843H105.519V15.0654H107.007C107.873 15.0654 108.307 14.7682 108.307 14.1738ZM108.151 11.687C108.151 11.4507 108.058 11.2806 107.872 11.1768C107.689 11.0693 107.415 11.0156 107.05 11.0156H105.519V12.4443H106.862C107.284 12.4443 107.605 12.3906 107.823 12.2832C108.042 12.1722 108.151 11.9735 108.151 11.687Z" fill="#326CA5"/>
<path d="M53.5659 29.4175H58.0317V35.5103C57.3013 35.7482 56.5985 35.917 55.9233 36.0166C55.2537 36.1162 54.5288 36.166 53.7485 36.166C51.9113 36.166 50.4946 35.6237 49.4985 34.5391C48.5024 33.4489 48.0044 31.9132 48.0044 29.9321C48.0044 27.9787 48.5661 26.4513 49.6895 25.3501C50.8128 24.2433 52.3595 23.6899 54.3296 23.6899C55.5968 23.6899 56.7977 23.9334 57.9321 24.4204L57.2349 26.0723C56.2498 25.6185 55.2648 25.3916 54.2798 25.3916C52.9849 25.3916 51.9611 25.7983 51.2085 26.6118C50.4559 27.4253 50.0796 28.5376 50.0796 29.9487C50.0796 31.4318 50.4172 32.5607 51.0923 33.3354C51.7729 34.1047 52.7497 34.4893 54.0225 34.4893C54.6644 34.4893 55.3506 34.409 56.0811 34.2485V31.1191H53.5659V29.4175Z" fill="#326CA5"/>
<path d="M68.8892 31.3931C68.8892 32.8927 68.5046 34.0632 67.7354 34.9043C66.9661 35.7454 65.8953 36.166 64.5229 36.166C63.6652 36.166 62.9071 35.9723 62.2485 35.585C61.59 35.1976 61.0837 34.6414 60.7295 33.9165C60.3753 33.1916 60.1982 32.3504 60.1982 31.3931C60.1982 29.9045 60.5801 28.7423 61.3438 27.9067C62.1074 27.0711 63.1838 26.6533 64.5728 26.6533C65.9009 26.6533 66.9523 27.0822 67.7271 27.9399C68.5018 28.7922 68.8892 29.9432 68.8892 31.3931ZM62.207 31.3931C62.207 33.5125 62.9901 34.5723 64.5562 34.5723C66.1056 34.5723 66.8804 33.5125 66.8804 31.3931C66.8804 29.2957 66.1001 28.2471 64.5396 28.2471C63.7205 28.2471 63.1257 28.5182 62.7549 29.0605C62.3896 29.6029 62.207 30.3804 62.207 31.3931Z" fill="#326CA5"/>
<path d="M79.2817 31.3931C79.2817 32.8927 78.8971 34.0632 78.1279 34.9043C77.3587 35.7454 76.2879 36.166 74.9155 36.166C74.0578 36.166 73.2996 35.9723 72.6411 35.585C71.9826 35.1976 71.4762 34.6414 71.1221 33.9165C70.7679 33.1916 70.5908 32.3504 70.5908 31.3931C70.5908 29.9045 70.9727 28.7423 71.7363 27.9067C72.5 27.0711 73.5763 26.6533 74.9653 26.6533C76.2935 26.6533 77.3449 27.0822 78.1196 27.9399C78.8944 28.7922 79.2817 29.9432 79.2817 31.3931ZM72.5996 31.3931C72.5996 33.5125 73.3827 34.5723 74.9487 34.5723C76.4982 34.5723 77.2729 33.5125 77.2729 31.3931C77.2729 29.2957 76.4927 28.2471 74.9321 28.2471C74.1131 28.2471 73.5182 28.5182 73.1475 29.0605C72.7822 29.6029 72.5996 30.3804 72.5996 31.3931Z" fill="#326CA5"/>
<path d="M89.2842 26.8193V27.8901L87.7153 28.1807C87.8592 28.3743 87.9782 28.6123 88.0723 28.8945C88.1663 29.1768 88.2134 29.4756 88.2134 29.791C88.2134 30.7373 87.8869 31.4816 87.2339 32.0239C86.5809 32.5662 85.6816 32.8374 84.5361 32.8374C84.2428 32.8374 83.9772 32.8153 83.7393 32.771C83.3187 33.0311 83.1084 33.3354 83.1084 33.6841C83.1084 33.8944 83.2052 34.0521 83.3989 34.1572C83.5981 34.2624 83.9606 34.3149 84.4863 34.3149H86.0884C87.1011 34.3149 87.8703 34.5308 88.396 34.9624C88.9217 35.394 89.1846 36.0166 89.1846 36.8301C89.1846 37.8704 88.7557 38.6729 87.8979 39.2373C87.0402 39.8018 85.8006 40.084 84.1792 40.084C82.9285 40.084 81.974 39.8626 81.3154 39.4199C80.6569 38.9772 80.3276 38.3464 80.3276 37.5273C80.3276 36.9629 80.5047 36.487 80.8589 36.0996C81.2186 35.7178 81.7194 35.4521 82.3613 35.3027C82.1012 35.1921 81.8854 35.015 81.7139 34.7715C81.5479 34.5225 81.4648 34.2624 81.4648 33.9912C81.4648 33.6481 81.5617 33.3576 81.7554 33.1196C81.9491 32.8817 82.2368 32.6465 82.6187 32.4141C82.1427 32.2093 81.7554 31.8773 81.4565 31.418C81.1632 30.9531 81.0166 30.4108 81.0166 29.791C81.0166 28.7949 81.3293 28.0229 81.9546 27.4751C82.5854 26.9272 83.4819 26.6533 84.644 26.6533C84.9041 26.6533 85.1753 26.6727 85.4575 26.7114C85.7453 26.7446 85.9611 26.7806 86.105 26.8193H89.2842ZM82.0708 37.4277C82.0708 37.8483 82.259 38.172 82.6353 38.3989C83.0171 38.6258 83.5511 38.7393 84.2373 38.7393C85.2998 38.7393 86.0911 38.5871 86.6113 38.2827C87.1315 37.9784 87.3916 37.5744 87.3916 37.0708C87.3916 36.6724 87.2477 36.3874 86.96 36.2158C86.6777 36.0498 86.1493 35.9668 85.3745 35.9668H83.897C83.3381 35.9668 82.8926 36.0968 82.5605 36.3569C82.2341 36.6226 82.0708 36.9795 82.0708 37.4277ZM82.9092 29.791C82.9092 30.3665 83.0558 30.8092 83.3491 31.1191C83.6479 31.429 84.0741 31.584 84.6274 31.584C85.7563 31.584 86.3208 30.9808 86.3208 29.7744C86.3208 29.1768 86.1797 28.7174 85.8975 28.3965C85.6208 28.07 85.1974 27.9067 84.6274 27.9067C84.063 27.9067 83.6341 28.0672 83.3408 28.3882C83.0531 28.7091 82.9092 29.1768 82.9092 29.791Z" fill="#326CA5"/>
<path d="M92.9448 36H90.9941V23.084H92.9448V36Z" fill="#326CA5"/>
<path d="M99.7515 36.166C98.3237 36.166 97.2059 35.751 96.3979 34.9209C95.5955 34.0853 95.1943 32.937 95.1943 31.4761C95.1943 29.9764 95.5679 28.7977 96.3149 27.9399C97.062 27.0822 98.0885 26.6533 99.3945 26.6533C100.606 26.6533 101.564 27.0213 102.267 27.7573C102.969 28.4933 103.321 29.506 103.321 30.7954V31.8496H97.2031C97.2308 32.7406 97.4715 33.4268 97.9253 33.9082C98.3791 34.3841 99.0182 34.6221 99.8428 34.6221C100.385 34.6221 100.889 34.5723 101.354 34.4727C101.824 34.3675 102.327 34.196 102.864 33.958V35.5435C102.388 35.7703 101.907 35.9308 101.42 36.0249C100.933 36.119 100.377 36.166 99.7515 36.166ZM99.3945 28.1309C98.7747 28.1309 98.2767 28.3273 97.9004 28.7202C97.5296 29.1131 97.3083 29.6859 97.2363 30.4385H101.403C101.392 29.6803 101.21 29.1076 100.855 28.7202C100.501 28.3273 100.014 28.1309 99.3945 28.1309Z" fill="#326CA5"/>
<path d="M114.253 36.166C113.661 36.166 113.118 36.0581 112.626 35.8423C112.139 35.6209 111.729 35.2834 111.397 34.8296H111.298C111.364 35.3608 111.397 35.8644 111.397 36.3403V40.084H110.02V26.9023H111.14L111.331 28.1475H111.397C111.752 27.6494 112.164 27.2897 112.634 27.0684C113.105 26.847 113.644 26.7363 114.253 26.7363C115.459 26.7363 116.389 27.1486 117.042 27.9731C117.701 28.7977 118.03 29.9543 118.03 31.4429C118.03 32.937 117.695 34.0991 117.025 34.9292C116.361 35.7537 115.437 36.166 114.253 36.166ZM114.054 27.9067C113.124 27.9067 112.452 28.1641 112.037 28.6787C111.622 29.1934 111.409 30.0124 111.397 31.1357V31.4429C111.397 32.7212 111.611 33.637 112.037 34.1904C112.463 34.7383 113.146 35.0122 114.087 35.0122C114.873 35.0122 115.487 34.694 115.93 34.0576C116.378 33.4212 116.602 32.5441 116.602 31.4263C116.602 30.2918 116.378 29.423 115.93 28.8198C115.487 28.2111 114.862 27.9067 114.054 27.9067Z" fill="#326CA5"/>
<path d="M121.823 36H120.445V23.084H121.823V36Z" fill="#326CA5"/>
<path d="M130.34 36L130.066 34.7051H130C129.546 35.2751 129.092 35.6624 128.638 35.8672C128.19 36.0664 127.628 36.166 126.953 36.166C126.051 36.166 125.343 35.9336 124.828 35.4688C124.319 35.0039 124.064 34.3426 124.064 33.4849C124.064 31.6476 125.534 30.6847 128.472 30.5962L130.016 30.5464V29.9819C130.016 29.2681 129.861 28.7423 129.551 28.4048C129.247 28.0617 128.757 27.8901 128.082 27.8901C127.324 27.8901 126.466 28.1226 125.509 28.5874L125.085 27.5332C125.534 27.2897 126.023 27.0988 126.555 26.9604C127.091 26.8221 127.628 26.7529 128.165 26.7529C129.25 26.7529 130.052 26.9937 130.572 27.4751C131.098 27.9565 131.361 28.7285 131.361 29.791V36H130.34ZM127.227 35.0288C128.085 35.0288 128.757 34.7936 129.244 34.3232C129.737 33.8529 129.983 33.1943 129.983 32.3477V31.5259L128.605 31.584C127.509 31.6227 126.718 31.7943 126.231 32.0986C125.75 32.3975 125.509 32.8651 125.509 33.5015C125.509 33.9995 125.658 34.3786 125.957 34.6387C126.261 34.8988 126.685 35.0288 127.227 35.0288Z" fill="#326CA5"/>
<path d="M132.764 26.9023H134.241L136.233 32.0903C136.671 33.2746 136.942 34.1296 137.047 34.6553H137.113C137.185 34.373 137.335 33.8916 137.562 33.2109C137.794 32.5247 138.547 30.4219 139.819 26.9023H141.297L137.387 37.2617C137 38.2855 136.546 39.0104 136.026 39.4365C135.511 39.8682 134.878 40.084 134.125 40.084C133.704 40.084 133.289 40.0369 132.88 39.9429V38.8389C133.184 38.9053 133.525 38.9385 133.901 38.9385C134.847 38.9385 135.522 38.4072 135.926 37.3447L136.433 36.0498L132.764 26.9023Z" fill="#326CA5"/>
</svg>
