<svg xmlns="http://www.w3.org/2000/svg" width="156" height="39" viewBox="0 0 156 39"><defs><linearGradient id="ycfqa" x1="37.64" x2=".88" y1="62" y2="-31.36" gradientUnits="userSpaceOnUse"><stop offset="0" stop-color="#f85db9"/><stop offset=".17" stop-color="#ef5cbb"/><stop offset=".45" stop-color="#d558c1"/><stop offset=".81" stop-color="#ac52cb"/><stop offset="1" stop-color="#934ed1"/></linearGradient><linearGradient id="ycfqc" x1="21.15" x2="32.61" y1="26.74" y2="47.47" gradientUnits="userSpaceOnUse"><stop offset="0" stop-color="#fecf00"/><stop offset=".34" stop-color="#fdc607"/><stop offset="1" stop-color="#faa81c"/></linearGradient><linearGradient id="ycfqd" x1="5.26" x2="34.08" y1="6.06" y2="30.01" gradientUnits="userSpaceOnUse"><stop offset="0" stop-color="#6435a5"/><stop offset=".24" stop-color="#6d3aae"/><stop offset=".63" stop-color="#8747c6"/><stop offset="1" stop-color="#934ed1"/></linearGradient><clipPath id="ycfqb"><path d="M15.711 28.19l-.075.015a2.467 2.467 0 0 0-.125.037l.2-.053c.833.232 1.694.35 2.56.35h9.296V22.56a4.425 4.425 0 0 1-.055-.055v-3.648a8.98 8.98 0 0 0-.067-1.118c-.008-.07-.016-.11-.032-.215-.016-.106-.052-.208-.052-.314a8.568 8.568 0 0 0-.182-.785c-.02-.074-.028-.14-.055-.223-.028-.083-.06-.157-.087-.236v-.043a8.99 8.99 0 0 0-.337-.835l-.04-.082a9.013 9.013 0 0 0-.372-.703c-.028-.043-.048-.086-.075-.125l-.175-.275-.202-.294-.115-.157a9.118 9.118 0 0 0-1.073-1.2l-.127-.118-.158-.145a5.034 5.034 0 0 1-.008-.023 9.358 9.358 0 0 0-9.92-1.412c-3.316 1.494-5.442 4.77-5.438 8.378v.459a9.106 9.106 0 0 0 .836 3.816l-.028.01.032-.01a9.303 9.303 0 0 0 5.874 4.981zM3.867 29.4h-.095a15.744 15.744 0 0 1-2.19-4.189.163.163 0 0 0 0-.039A17.7 17.7 0 0 1 .5 19.07v-.89C.487 10.823 5.04 4.214 11.964 1.542c6.923-2.671 14.792-.857 19.81 4.569l-.016.004.036.039.123.13c.067.07.127.145.19.215a18.12 18.12 0 0 1 3.648 6.578c.45 1.497.7 3.047.745 4.608v.04c.004.172.008.337-.06.498v1.118l.068.015v12.265a5.3 5.3 0 0 0 1.576 3.77 5.407 5.407 0 0 0 3.8 1.56H18.487c-5.853.004-11.342-2.81-14.716-7.546l.228.012a1.057 1.057 0 0 0-.133-.016zm38.024 7.55h-.008z"/></clipPath></defs><g><g><g><g><g><g><path fill="#fff" d="M94.52 24.912c-2.483 0-4.214-1.816-4.21-4.377.004-2.561 1.779-4.393 4.278-4.381 2.5.012 4.235 1.82 4.227 4.42-.008 2.6-1.755 4.358-4.294 4.338zm.08-11.974c-4.468-.04-7.8 3.2-7.808 7.597-.008 4.397 3.264 7.593 7.717 7.625 4.452.031 7.796-3.173 7.823-7.562.028-4.39-3.196-7.617-7.732-7.66z"/></g><g><path fill="#fff" d="M134.827 20.733c2.377-2.184 2.955-4.922 1.846-7.907-1.046-2.824-3.268-4.197-6.247-4.314-4.254-.177-7.443 2.667-7.502 6.667-.024 1.758.518 3.272 1.925 4.405.413.377.996.51 1.534.348a1.576 1.576 0 0 0 1.08-1.132c.167-.667-.142-1.2-.495-1.73a3.292 3.292 0 0 1-.075-3.844c.91-1.404 2.357-1.659 3.91-1.416a3.125 3.125 0 0 1 2.725 2.475 4.077 4.077 0 0 1-1.224 4.275 18.47 18.47 0 0 1-1.359 1.106c-2.274 1.734-4.55 3.466-6.83 5.197-.677.518-.886 1.099-.677 1.777.223.731.89 1.242 1.66 1.271h10.015c.18.012.361.012.542 0a1.634 1.634 0 0 0 1.513-1.624 1.56 1.56 0 0 0-.419-1.128 1.591 1.591 0 0 0-1.102-.503c-.705-.055-1.414-.032-2.123-.036h-3.565l-.048-.125c.242-.177.483-.35.721-.53 1.387-1.07 2.896-2.04 4.195-3.232z"/></g><g><path fill="#fff" d="M55.005 21.774c-.397 2.044-1.767 3.138-3.855 3.138-2.147 0-3.826-1.236-4.155-3.2a6.813 6.813 0 0 1 .036-2.487c.467-2.142 2.428-3.338 4.8-3.044 2.282.279 3.292 1.55 3.324 4.146-.047.474-.06.957-.15 1.447zm-.531-8.21a8.727 8.727 0 0 0-6.675.036c-4.864 1.89-5.783 8.63-2.555 12.136 2.547 2.773 7.554 3.408 9.808.53.043.068.08.14.111.215.345 1.082 1.018 1.569 1.98 1.431.963-.137 1.478-.827 1.482-1.898 0-2.2.06-4.405-.024-6.605-.114-2.797-1.525-4.773-4.127-5.844z"/></g><g><path fill="#fff" d="M152.581 20.099c-.753 0-1.505.121-2.294.188v-1.122c0-1.416-.459-2-1.584-2s-1.604.588-1.604 1.961v1.24l-3.308-.35c.107-.176.202-.345.309-.51l5.229-7.942a4.63 4.63 0 0 0 .424-.726 1.656 1.656 0 0 0-.006-1.397 1.683 1.683 0 0 0-1.076-.905c-.792-.259-1.616.067-2.155.933a1524.444 1524.444 0 0 0-6.86 11.108c-.9 1.467-.14 2.746 1.584 2.773h4.31c1.07 0 1.398.334 1.434 1.405.02.6 0 1.204.031 1.804.08.945.745 1.478 1.736 1.455.432.025.855-.13 1.166-.428.311-.299.481-.712.47-1.141.02-.56 0-1.122.02-1.683.059-1.114.376-1.404 1.493-1.42h.67c1.156-.023 1.817-.62 1.813-1.639-.004-1.02-.653-1.62-1.802-1.604z"/></g><g><path fill="#fff" d="M112.785 24.955c-1.902.016-3.455-.991-3.962-2.656a12.46 12.46 0 0 1-.273-1.642h.056c.02-.337 0-.682.067-1.015.34-2.265 1.775-3.526 3.961-3.475 2.187.05 3.934 1.477 4.136 3.644a6.59 6.59 0 0 1-.159 2.26c-.471 1.822-1.925 2.869-3.826 2.884zm-.04-12.009c-4.1-.192-7.435 2.609-7.59 6.625-.142 3.742-.055 7.492-.035 11.237a1.62 1.62 0 0 0 .473 1.175c.31.312.736.487 1.178.485a1.667 1.667 0 0 0 1.783-1.46c.046-.336.066-.676.06-1.015v-3.648c.664.506 1.37.956 2.11 1.345a6.596 6.596 0 0 0 4.917.047c5.027-1.773 5.902-8.315 3.303-11.794-1.54-2.055-3.691-2.875-6.199-2.997z"/></g><g><path fill="#fff" d="M84.207 12.94h-8.77c-.94.043-1.68.81-1.68 1.743 0 .931.74 1.699 1.68 1.743h2.75v9.978c.044.931.819 1.663 1.76 1.663.941 0 1.716-.732 1.76-1.663v-9.978h2.5a1.767 1.767 0 0 0 1.596-.847 1.73 1.73 0 0 0 0-1.793 1.767 1.767 0 0 0-1.596-.847z"/></g><g><path fill="#fff" d="M66.254 25.695a7.925 7.925 0 0 1-1.093-.055c-.175-.04-.262-.133-.262-.286v-3.79c0-.152.087-.227.262-.227h1.006c2.345 0 3.518.695 3.518 2.083.007 1.517-1.136 2.275-3.43 2.275zm-1.343-9.978a.271.271 0 0 1 .23-.287c.463-.039.792-.058 1.038-.058 1.98 0 2.97.571 2.97 1.714.008.58-.309 1.117-.823 1.396a4.161 4.161 0 0 1-2.234.514h-.92c-.174 0-.26-.075-.26-.228zm4.322 4.306h-.028l.028-.027a4.774 4.774 0 0 0 2.551-1.177 2.908 2.908 0 0 0 .939-2.184c0-2.471-2.287-3.707-6.861-3.707-.959 0-1.997.047-3.114.141-.457.025-.885.23-1.188.569a1.774 1.774 0 0 0-.456 1.22v11.374c-.005.447.16.88.46 1.212a1.65 1.65 0 0 0 1.153.585c1.212.098 2.333.145 3.37.145 4.847 0 7.268-1.493 7.266-4.48a3.124 3.124 0 0 0-1.094-2.427 5.483 5.483 0 0 0-3.026-1.244z"/></g></g></g></g><g><g><path fill="url(#ycfqa)" d="M15.711 28.19l-.075.015a2.467 2.467 0 0 0-.125.037l.2-.053c.833.232 1.694.35 2.56.35h9.296V22.56a4.425 4.425 0 0 1-.055-.055v-3.648a8.98 8.98 0 0 0-.067-1.118c-.008-.07-.016-.11-.032-.215-.016-.106-.052-.208-.052-.314a8.568 8.568 0 0 0-.182-.785c-.02-.074-.028-.14-.055-.223-.028-.083-.06-.157-.087-.236v-.043a8.99 8.99 0 0 0-.337-.835l-.04-.082a9.013 9.013 0 0 0-.372-.703c-.028-.043-.048-.086-.075-.125l-.175-.275-.202-.294-.115-.157a9.118 9.118 0 0 0-1.073-1.2l-.127-.118-.158-.145a5.034 5.034 0 0 1-.008-.023 9.358 9.358 0 0 0-9.92-1.412c-3.316 1.494-5.442 4.77-5.438 8.378v.459a9.106 9.106 0 0 0 .836 3.816l-.028.01.032-.01a9.303 9.303 0 0 0 5.874 4.981zM3.867 29.4h-.095a15.744 15.744 0 0 1-2.19-4.189.163.163 0 0 0 0-.039A17.7 17.7 0 0 1 .5 19.07v-.89C.487 10.823 5.04 4.214 11.964 1.542c6.923-2.671 14.792-.857 19.81 4.569l-.016.004.036.039.123.13c.067.07.127.145.19.215a18.12 18.12 0 0 1 3.648 6.578c.45 1.497.7 3.047.745 4.608v.04c.004.172.008.337-.06.498v1.118l.068.015v12.265a5.3 5.3 0 0 0 1.576 3.77 5.407 5.407 0 0 0 3.8 1.56H18.487c-5.853.004-11.342-2.81-14.716-7.546l.228.012a1.057 1.057 0 0 0-.133-.016zm38.024 7.55h-.008z"/></g><g clip-path="url(#ycfqb)"><path fill="url(#ycfqc)" d="M37.768 19.475c-2.967-.67-6.452.996-9.847 3.165 0 0-11.023 5.9-11.856 5.668a37.99 37.99 0 0 1-11.94 1.216C7.5 34.259 12.99 40.693 18.843 40.689l23.403-3.619c-1.428.001-1.891-.56-2.901-1.56a5.3 5.3 0 0 1-1.576-3.77z"/></g><g clip-path="url(#ycfqb)"><path fill="url(#ycfqd)" d="M9.833 23.208a9.106 9.106 0 0 1-.836-3.816v-.46c-.004-3.606 2.122-6.883 5.437-8.377a9.358 9.358 0 0 1 9.953 1.44 12.103 12.103 0 0 1 7.387-5.884C26.756.685 18.887-1.13 11.964 1.542 5.04 4.214.487 10.822.5 18.18v.89a17.7 17.7 0 0 0 1.081 6.103 32.72 32.72 0 0 0 8.252-1.965z"/></g></g></g></g></svg>