<svg width="285" height="19" viewBox="0 0 285 19" fill="none" xmlns="http://www.w3.org/2000/svg">
<path d="M130.517 17.7442H125.98L128.818 0.319702H133.354L130.517 17.7442Z" fill="#00579F"/>
<path d="M146.961 0.745613C146.067 0.393054 144.647 0.00378418 142.893 0.00378418C138.413 0.00378418 135.258 2.37635 135.239 5.76842C135.202 8.27107 137.497 9.66111 139.215 10.4956C140.97 11.3483 141.566 11.9048 141.566 12.6649C141.548 13.8322 140.148 14.3703 138.842 14.3703C137.031 14.3703 136.06 14.0929 134.586 13.4434L133.988 13.165L133.354 17.0764C134.417 17.5578 136.378 17.9851 138.413 18.0038C143.173 18.0038 146.272 15.6679 146.308 12.0531C146.326 10.0696 145.114 8.54972 142.5 7.30775C140.914 6.51049 139.942 5.97291 139.942 5.15717C139.961 4.41558 140.764 3.65601 142.555 3.65601C144.03 3.61881 145.113 3.97088 145.934 4.32319L146.345 4.50822L146.961 0.745613Z" fill="#00579F"/>
<path d="M152.991 11.5713C153.364 10.5703 154.802 6.69608 154.802 6.69608C154.783 6.73328 155.175 5.67659 155.399 5.02789L155.716 6.52928C155.716 6.52928 156.575 10.7001 156.761 11.5713C156.052 11.5713 153.887 11.5713 152.991 11.5713ZM158.59 0.319702H155.081C153.999 0.319702 153.177 0.634567 152.71 1.76542L145.972 17.7439H150.732C150.732 17.7439 151.516 15.5933 151.684 15.1302C152.206 15.1302 156.837 15.1302 157.508 15.1302C157.639 15.7419 158.05 17.7439 158.05 17.7439H162.25L158.59 0.319702Z" fill="#00579F"/>
<path d="M122.191 0.319702L117.749 12.2015L117.263 9.79175C116.442 7.01119 113.866 3.99016 110.991 2.48803L115.06 17.7257H119.858L126.988 0.319702H122.191Z" fill="#00579F"/>
<path d="M113.623 0.319702H106.325L106.25 0.671769C111.943 2.11773 115.714 5.60317 117.263 9.79249L115.677 1.78439C115.415 0.671522 114.613 0.356412 113.623 0.319702Z" fill="#FAA61A"/>
<path d="M226.847 12.0274V8.27812C226.847 6.8634 225.945 5.91109 224.493 5.89859C224.079 5.87185 223.666 5.95654 223.296 6.14382C222.927 6.3311 222.614 6.61412 222.391 6.96338C222.188 6.62449 221.897 6.34671 221.549 6.15931C221.201 5.97192 220.809 5.88185 220.414 5.89859C220.07 5.88199 219.728 5.95533 219.421 6.11137C219.114 6.26742 218.853 6.50078 218.664 6.78842V6.03856H217.362V12.0274H218.677V8.71054C218.677 7.67074 219.251 7.12085 220.141 7.12085C221.031 7.12085 221.444 7.68324 221.444 8.69804V12.0274H222.751V8.71054C222.751 7.67074 223.351 7.12085 224.215 7.12085C225.08 7.12085 225.53 7.68324 225.53 8.69804V12.0274H226.847ZM246.301 6.04356H244.174V4.22892H242.859V6.04356H241.645V7.23333H242.859V9.96029C242.859 11.35 243.397 12.1774 244.936 12.1774C245.511 12.1792 246.075 12.0189 246.564 11.7149L246.189 10.6002C245.839 10.8083 245.443 10.9244 245.036 10.9376C244.386 10.9376 244.172 10.5377 244.172 9.9378V7.23333H246.299L246.301 6.04356ZM257.406 5.89359C257.089 5.88434 256.775 5.96096 256.497 6.11537C256.22 6.26979 255.989 6.49627 255.829 6.77092V6.04356H254.539V12.0274H255.842V8.67304C255.842 7.67324 256.267 7.13335 257.119 7.13335C257.398 7.12931 257.675 7.18028 257.934 7.28332L258.334 6.05606C258.036 5.94962 257.723 5.89467 257.406 5.89359ZM240.617 6.51847C239.88 6.08044 239.032 5.86354 238.175 5.89359C236.661 5.89359 235.676 6.62095 235.676 7.80822C235.676 8.78552 236.401 9.3854 237.74 9.57287L238.353 9.66035C239.065 9.76033 239.405 9.94779 239.405 10.2852C239.405 10.7476 238.93 11.0126 238.04 11.0126C237.322 11.0354 236.618 10.8152 236.041 10.3877L235.448 11.4C236.207 11.9302 237.115 12.2027 238.04 12.1774C239.767 12.1774 240.77 11.3625 240.77 10.2252C240.77 9.17295 239.98 8.62305 238.68 8.43559L238.068 8.34811C237.505 8.27312 237.053 8.16065 237.053 7.76073C237.053 7.32331 237.478 7.06086 238.193 7.06086C238.848 7.07054 239.489 7.24689 240.057 7.57326L240.617 6.51847ZM275.49 5.89359C275.173 5.88434 274.859 5.96096 274.581 6.11537C274.304 6.26979 274.073 6.49627 273.913 6.77092V6.04356H272.623V12.0274H273.926V8.67304C273.926 7.67324 274.351 7.13335 275.203 7.13335C275.482 7.12931 275.759 7.18028 276.018 7.28332L276.418 6.05606C276.12 5.94962 275.806 5.89467 275.49 5.89359ZM258.721 9.03547C258.721 10.8501 259.986 12.1774 261.913 12.1774C262.694 12.216 263.462 11.961 264.065 11.4625L263.44 10.4102C262.99 10.753 262.441 10.9415 261.876 10.9476C260.836 10.9476 260.073 10.1827 260.073 9.03297C260.073 7.8832 260.838 7.13085 261.876 7.11835C262.441 7.12447 262.99 7.31293 263.44 7.65575L264.065 6.60345C263.462 6.10492 262.694 5.84993 261.913 5.88859C259.986 5.88859 258.721 7.21583 258.721 9.03047V9.03547ZM270.914 9.03547V6.03606H269.612V6.76342C269.389 6.47692 269.102 6.24776 268.773 6.09512C268.445 5.94249 268.084 5.87081 267.722 5.8861C266.045 5.8861 264.722 7.20084 264.722 9.02797C264.722 10.8551 266.037 12.1699 267.722 12.1699C268.084 12.1851 268.445 12.1135 268.773 11.9608C269.102 11.8082 269.389 11.579 269.612 11.2925V12.0174H270.914V9.03547ZM266.07 9.03547C266.07 7.98318 266.757 7.12085 267.884 7.12085C268.962 7.12085 269.686 7.94819 269.686 9.03547C269.686 10.1228 268.962 10.9501 267.884 10.9501C266.757 10.9501 266.07 10.0853 266.07 9.03547ZM250.358 5.89359C248.608 5.89359 247.378 7.17084 247.378 9.03547C247.378 10.9376 248.656 12.1774 250.445 12.1774C251.339 12.2087 252.213 11.9097 252.9 11.3375L252.262 10.3727C251.765 10.7705 251.149 10.9904 250.513 10.9976C249.673 10.9976 248.911 10.6102 248.723 9.53288H253.167C253.18 9.37041 253.192 9.20794 253.192 9.03297C253.192 7.16834 252.027 5.89109 250.35 5.89109L250.358 5.89359ZM250.333 7.05836C251.173 7.05836 251.71 7.58326 251.848 8.51058H248.746C248.883 7.64575 249.408 7.05836 250.335 7.05836H250.333ZM282.989 9.03547V3.63904H281.687V6.76842C281.465 6.48192 281.177 6.25276 280.848 6.10012C280.52 5.94749 280.159 5.87581 279.797 5.89109C278.12 5.89109 276.798 7.20583 276.798 9.03297C276.798 10.8601 278.112 12.1749 279.797 12.1749C280.159 12.1901 280.52 12.1185 280.848 11.9658C281.177 11.8132 281.465 11.584 281.687 11.2975V12.0224H282.989V9.03547ZM284.511 11.475C284.563 11.4748 284.614 11.485 284.661 11.505C284.707 11.5245 284.748 11.5525 284.784 11.5875C284.818 11.6218 284.846 11.6625 284.866 11.7074C284.886 11.754 284.896 11.8042 284.896 11.8549C284.896 11.9056 284.886 11.9558 284.866 12.0024C284.846 12.0473 284.818 12.088 284.784 12.1224C284.748 12.1572 284.707 12.1852 284.661 12.2048C284.614 12.225 284.563 12.2353 284.511 12.2348C284.435 12.2358 284.36 12.2142 284.296 12.1729C284.232 12.1316 284.182 12.0722 284.151 12.0024C284.131 11.9558 284.121 11.9056 284.121 11.8549C284.121 11.8042 284.131 11.7541 284.151 11.7074C284.19 11.6157 284.264 11.5429 284.356 11.505C284.407 11.4839 284.461 11.4737 284.516 11.475H284.511ZM284.511 12.1499C284.551 12.1505 284.59 12.1428 284.626 12.1274C284.66 12.1125 284.692 12.0913 284.719 12.0649C284.774 12.0091 284.805 11.9336 284.805 11.8549C284.805 11.7762 284.774 11.7007 284.719 11.645C284.692 11.6184 284.661 11.5972 284.626 11.5825C284.59 11.5672 284.551 11.5595 284.511 11.56C284.471 11.5594 284.431 11.5671 284.394 11.5825C284.349 11.6015 284.31 11.6311 284.279 11.6688C284.249 11.7065 284.228 11.751 284.219 11.7986C284.209 11.8461 284.212 11.8952 284.226 11.9416C284.239 11.9881 284.265 12.0304 284.299 12.0649C284.326 12.0916 284.358 12.1128 284.394 12.1274C284.432 12.1435 284.474 12.1512 284.516 12.1499H284.511ZM284.534 11.675C284.571 11.6723 284.608 11.6829 284.639 11.7049C284.651 11.7148 284.661 11.7274 284.667 11.7417C284.674 11.756 284.677 11.7717 284.676 11.7874C284.676 11.801 284.674 11.8144 284.669 11.8269C284.664 11.8394 284.656 11.8507 284.646 11.8599C284.623 11.8803 284.594 11.8926 284.564 11.8949L284.679 12.0274H284.589L284.481 11.8949H284.446V12.0274H284.371V11.6775L284.534 11.675ZM284.446 11.7399V11.8349H284.534C284.549 11.8394 284.566 11.8394 284.581 11.8349C284.587 11.8311 284.591 11.8258 284.594 11.8197C284.597 11.8136 284.599 11.8068 284.599 11.7999C284.599 11.7931 284.597 11.7863 284.594 11.7801C284.591 11.774 284.587 11.7688 284.581 11.7649C284.566 11.7604 284.549 11.7604 284.534 11.7649L284.446 11.7399ZM278.15 9.03547C278.15 7.98318 278.837 7.12085 279.964 7.12085C281.042 7.12085 281.767 7.94819 281.767 9.03547C281.767 10.1228 281.042 10.9501 279.964 10.9501C278.837 10.9501 278.15 10.0853 278.15 9.03547ZM234.183 9.03547V6.03606H232.881V6.76342C232.659 6.47935 232.373 6.25228 232.045 6.10101C231.718 5.94975 231.359 5.87865 230.999 5.89359C229.322 5.89359 228 7.20833 228 9.03547C228 10.8626 229.314 12.1774 230.999 12.1774C231.361 12.1926 231.722 12.121 232.051 11.9683C232.379 11.8157 232.667 11.5865 232.889 11.3V12.0249H234.191L234.183 9.03547ZM229.339 9.03547C229.339 7.98318 230.027 7.12085 231.154 7.12085C232.231 7.12085 232.956 7.94819 232.956 9.03547C232.956 10.1228 232.231 10.9501 231.154 10.9501C230.027 10.9501 229.339 10.0878 229.339 9.03547Z" fill="#231F20"/>
<path d="M200.745 1.92188H192.872V16.0716H200.745V1.92188Z" fill="#FF5F00"/>
<path d="M193.371 9.00052C193.37 7.63803 193.679 6.29314 194.275 5.06764C194.87 3.84214 195.737 2.76814 196.808 1.92692C195.481 0.883676 193.887 0.234947 192.208 0.0548725C190.529 -0.125202 188.834 0.170644 187.315 0.908597C185.797 1.64655 184.516 2.79684 183.621 4.22799C182.725 5.65915 182.25 7.31343 182.25 9.00177C182.25 10.6901 182.725 12.3444 183.621 13.7755C184.516 15.2067 185.797 16.357 187.315 17.0949C188.834 17.8329 190.529 18.1287 192.208 17.9487C193.887 17.7686 195.481 17.1199 196.808 16.0766C195.736 15.2351 194.87 14.1607 194.274 12.9348C193.679 11.7088 193.37 10.3634 193.371 9.00052Z" fill="#EB001B"/>
<path d="M211.368 9.00052C211.368 10.689 210.893 12.3434 209.997 13.7746C209.101 15.2058 207.821 16.356 206.302 17.0939C204.783 17.8317 203.088 18.1274 201.409 17.9471C199.73 17.7667 198.136 17.1177 196.808 16.0741C197.88 15.2321 198.746 14.1579 199.341 12.9323C199.937 11.7067 200.246 10.3619 200.246 8.99927C200.246 7.63665 199.937 6.29182 199.341 5.06626C198.746 3.84069 197.88 2.76639 196.808 1.92442C198.136 0.880719 199.73 0.231645 201.409 0.0514061C203.088 -0.128833 204.784 0.167037 206.303 0.905189C207.822 1.64334 209.102 2.79398 209.998 4.22555C210.894 5.65712 211.368 7.31184 211.368 9.00052Z" fill="#F79E1B"/>
<path d="M210.503 14.572V14.282H210.621V14.2245H210.328V14.2845H210.446V14.5745L210.503 14.572ZM211.08 14.572V14.222H211.003L210.898 14.472L210.793 14.222H210.701V14.572H210.753V14.3095L210.851 14.537H210.918L211.015 14.3095V14.5745L211.08 14.572Z" fill="#F79E1B"/>
<g clip-path="url(#clip0)">
<path d="M16.3879 0.00415039C11.363 0.00415039 7.36597 4.04846 7.36597 9.00415C7.36597 14.0168 11.4201 18.0042 16.3879 18.0042C21.3557 18.0042 25.4099 13.9598 25.4099 9.00415C25.467 4.04846 21.3557 0.00415039 16.3879 0.00415039ZM16.3879 12.3649C14.5607 12.3649 13.019 10.8269 13.019 9.00415C13.019 7.18136 14.5607 5.64341 16.3879 5.64341C18.2152 5.64341 19.7569 7.18136 19.7569 9.00415C19.7569 10.8269 18.2723 12.3649 16.3879 12.3649Z" fill="#8B3FFD"/>
<path d="M7.36604 2.62451V15.7258H4.11127L0 2.62451H7.36604Z" fill="#8B3FFD"/>
<path d="M83.4817 4.95984L81.4832 9.85858C81.4262 9.91553 81.4262 10.0294 81.4262 10.0864L81.3688 10.2003L81.3118 10.0864C81.3118 10.0294 81.2548 9.91553 81.2548 9.85858L79.2562 4.95984H76.6868L80.0556 13.3333L78.6283 16.5231H81.1977L85.9372 4.95984H83.4817Z" fill="black"/>
<path d="M64.5241 5.41559C64.0673 5.0738 63.4964 4.84596 62.8111 4.78901C61.6692 4.67507 60.5844 5.0738 59.8421 5.81432V4.90295H57.5007V13.2764H59.8421V8.89027C59.8421 7.92191 60.0132 7.63711 60.1846 7.40927C60.47 6.95358 60.9839 6.72574 61.6122 6.72574C62.2401 6.72574 62.8111 7.01053 63.0969 7.46622C63.2679 7.808 63.3249 8.26369 63.3249 8.49154C63.3249 9.23206 63.3249 13.2764 63.3249 13.2764H65.6663V8.20674C65.6663 6.89659 65.2665 5.98522 64.5241 5.41559Z" fill="black"/>
<path d="M53.0467 5.01679C51.9048 4.61805 50.6486 4.67504 49.5064 5.18768C48.7641 5.52946 48.0792 6.09906 47.6793 6.83958C47.2795 7.46616 47.1084 8.26363 47.1084 9.11805C47.1084 9.97248 47.2795 10.7699 47.6793 11.3965C48.0792 12.0231 48.5931 12.5927 49.278 12.9345C49.9633 13.2763 50.7627 13.5041 51.505 13.5041C51.9048 13.5041 52.3043 13.4472 52.7042 13.3333C53.0467 13.2193 53.3895 13.1054 53.732 12.9345C54.4173 12.5358 54.9882 12.0231 55.331 11.3965C55.7305 10.7699 55.9019 9.97248 55.9019 9.11805C55.9589 7.23831 54.8741 5.64337 53.0467 5.01679ZM53.732 9.23199C53.6749 9.97248 53.4465 10.5991 52.9896 10.9978C52.6472 11.2826 52.1333 11.4535 51.505 11.5105C50.8771 11.5105 50.4202 11.3396 50.0203 10.9978C49.5638 10.5991 49.3354 9.97248 49.278 9.23199C49.221 8.37757 49.5638 7.694 50.1917 7.23831C50.5342 7.01047 50.9911 6.83958 51.448 6.83958C51.9619 6.83958 52.3617 7.01047 52.7612 7.23831C53.4465 7.63705 53.789 8.37757 53.732 9.23199Z" fill="black"/>
<path d="M44.4246 5.41552C43.9678 5.07377 43.3969 4.84593 42.7115 4.78894C42.5975 4.78894 42.4261 4.78894 42.3121 4.78894C41.3983 4.78894 40.599 5.18768 39.9137 5.98515L39.7996 6.15604H39.5712C39.3998 5.87124 39.1713 5.6434 38.9429 5.47251C38.486 5.13072 37.9151 4.90288 37.2298 4.84593C36.145 4.73199 35.2885 5.07377 34.5462 5.87124V5.01682H32.2051V13.3902H34.5462V9.00415V8.89021C34.5462 7.97883 34.6604 7.75098 34.8317 7.46619C35.1172 7.01046 35.6311 6.72567 36.202 6.78262C36.7733 6.78262 37.2872 7.06745 37.5726 7.52314C37.8011 7.86489 37.8011 8.26363 37.8011 8.66236V13.3333H40.1421V8.83325C40.1421 7.97883 40.2561 7.69403 40.4276 7.4092C40.713 6.95351 41.2269 6.72567 41.7982 6.72567C42.3691 6.72567 42.8259 7.01046 43.1114 7.46619C43.2828 7.75098 43.3398 8.09277 43.3398 8.32061C43.3398 8.43452 43.3398 8.54846 43.3398 8.60541V13.2763H45.6809V8.14972C45.6809 7.69403 45.6238 7.23831 45.5094 6.83957C45.2814 6.26998 44.9385 5.7573 44.4246 5.41552Z" fill="black"/>
<path d="M74.4598 10.77C74.1173 11.1118 73.3176 11.7384 72.2328 11.7953C71.3191 11.8523 70.6341 11.5675 70.1202 11.0549C69.8918 10.827 69.7204 10.4852 69.6063 10.1434H76.0585V10.0865C76.1159 9.7447 76.1729 9.45991 76.1729 9.11812C76.1729 8.83333 76.1159 8.43459 76.0015 7.92191C75.716 6.95355 75.1451 6.21307 74.4028 5.64344C73.5461 5.01686 72.7467 4.84597 72.5183 4.84597C70.8626 4.56117 68.978 5.30165 68.0073 6.83965C67.322 7.92191 67.3794 9.00418 67.3794 9.34597C67.3794 9.7447 67.4364 10.9979 68.4642 12.1371C69.6634 13.4472 71.3191 13.5042 71.833 13.5612C74.1173 13.6181 75.659 12.1941 76.0015 11.9093L74.4598 10.77ZM70.4627 7.23838C70.8052 7.01054 71.205 6.83965 71.7189 6.83965C72.2328 6.83965 72.6327 7.01054 73.0322 7.23838C73.375 7.52318 73.6604 7.86496 73.8315 8.2637H69.7204C69.7774 7.86496 70.0629 7.46623 70.4627 7.23838Z" fill="black"/>
</g>
<defs>
<clipPath id="clip0">
<rect width="86.25" height="18" fill="white" transform="translate(0 0.00415039)"/>
</clipPath>
</defs>
</svg>
