<svg width="24" height="18" viewBox="0 0 24 18" fill="none" xmlns="http://www.w3.org/2000/svg">
<path d="M18.9576 15.1511L18.9271 15.1741L18.9004 15.2015C18.8609 15.242 18.7957 15.242 18.7562 15.2015L18.7295 15.1741L18.699 15.1511L16.4396 13.4469L16.4271 13.4375L16.414 13.4288C16.3986 13.4187 16.3922 13.4099 16.3889 13.4042C16.3851 13.3975 16.3821 13.3888 16.3813 13.3782C16.3803 13.367 16.382 13.3568 16.3843 13.3499C16.3849 13.3483 16.3854 13.3472 16.3857 13.3464L16.418 13.3145L16.4457 13.2733C16.4554 13.2589 16.4642 13.2523 16.4711 13.2485C16.479 13.244 16.4895 13.2405 16.5024 13.2394C16.5159 13.2383 16.5281 13.2402 16.5368 13.2431C16.5396 13.2441 16.5415 13.2449 16.5425 13.2455L16.5719 13.2745L16.609 13.3L18.0077 14.2586L18.7903 14.795V13.8461V10.5444C18.7903 10.5308 18.7916 10.5213 18.7929 10.5153C18.7997 10.5137 18.8112 10.5118 18.8283 10.5118C18.8454 10.5118 18.8569 10.5137 18.8637 10.5153C18.865 10.5213 18.8662 10.5308 18.8662 10.5444V13.8461V14.795L19.6489 14.2586L21.0432 13.303C21.0736 13.2833 21.0954 13.2764 21.1084 13.2736C21.1217 13.2708 21.1339 13.2708 21.147 13.2731C21.1697 13.2772 21.2037 13.2907 21.2423 13.3213C21.2418 13.3258 21.2412 13.3311 21.2402 13.3371C21.2355 13.3646 21.2253 13.3967 21.2096 13.4277C21.1997 13.4473 21.1894 13.4629 21.1805 13.4744L18.9576 15.1511Z" stroke="white"/>
<path fill-rule="evenodd" clip-rule="evenodd" d="M2.00835 3.87692V2.90769C2.00835 2.37515 2.47457 1.93846 3.01252 1.93846H18.0751C18.6131 1.93846 19.0793 2.37515 19.0793 2.90769V3.87692H2.00835ZM10.0417 8.72308H5.02087C4.48292 8.72308 4.0167 9.15976 4.0167 9.69231C4.0167 10.2249 4.48292 10.6509 5.02087 10.6509H10.0417C10.5797 10.6509 11.0459 10.2249 11.0459 9.69231C11.0459 9.15976 10.5797 8.72308 10.0417 8.72308ZM16.0668 8.72308H14.0584C13.5205 8.72308 13.0543 9.15976 13.0543 9.69231C13.0543 10.2249 13.4129 10.6509 14.0584 10.6509H15.1702C15.6006 9.90533 16.2461 9.26627 16.9992 8.94675C16.7841 8.73373 16.3896 8.72308 16.0668 8.72308ZM10.0417 8.72308H5.02087C4.48292 8.72308 4.0167 9.15976 4.0167 9.69231C4.0167 10.2249 4.48292 10.6509 5.02087 10.6509H10.0417C10.5797 10.6509 11.0459 10.2249 11.0459 9.69231C11.0459 9.15976 10.5797 8.72308 10.0417 8.72308ZM16.0668 8.72308H14.0584C13.5205 8.72308 13.0543 9.15976 13.0543 9.69231C13.0543 10.2249 13.4129 10.6509 14.0584 10.6509H15.1702C15.6006 9.90533 16.2461 9.26627 16.9992 8.94675C16.7841 8.73373 16.3896 8.72308 16.0668 8.72308ZM10.0417 8.72308H5.02087C4.48292 8.72308 4.0167 9.15976 4.0167 9.69231C4.0167 10.2249 4.48292 10.6509 5.02087 10.6509H10.0417C10.5797 10.6509 11.0459 10.2249 11.0459 9.69231C11.0459 9.15976 10.5797 8.72308 10.0417 8.72308ZM16.0668 8.72308H14.0584C13.5205 8.72308 13.0543 9.15976 13.0543 9.69231C13.0543 10.2249 13.4129 10.6509 14.0584 10.6509H15.1702C15.6006 9.90533 16.2461 9.26627 16.9992 8.94675C16.7841 8.73373 16.3896 8.72308 16.0668 8.72308ZM18.2903 0H3.2277C1.00417 0 0 0.969231 0 2.90769V11.6308C0 13.4414 1.29108 14.5385 3.01252 14.5385H14.8474C14.4171 13.8994 14.0943 13.3456 14.0943 12.6H3.01252C2.47457 12.6 2.00835 12.1633 2.00835 11.6308V5.81538H19.0793V8.09468C19.94 8.20118 20.4421 8.19053 21.0877 8.72308V6.22544V2.90769C21.0877 0.969231 20.0835 0 18.2903 0Z" fill="white"/>
<path d="M21.518 8.20117C20.8724 7.88164 20.1193 7.56212 19.3662 7.56212C19.151 7.56212 19.0434 7.56212 18.8282 7.56212C17.6447 7.56212 16.5688 7.98815 15.6005 8.62721C14.8474 9.15975 14.3095 9.90531 13.8791 10.7574C13.6639 11.3964 13.4487 12.0355 13.4487 12.7811V12.8876C13.4487 13.6331 13.6639 14.3787 13.9867 15.0177C14.8474 16.8284 16.6764 18 18.7206 18C21.6256 18 23.9926 15.6568 23.9926 12.7811C24.1001 10.7574 23.0242 9.05324 21.518 8.20117ZM18.8282 16.8284C17.322 16.8284 16.0309 16.0828 15.2778 14.9112C14.8474 14.2722 14.6322 13.5266 14.6322 12.7811V12.6745C14.6322 11.929 14.8474 11.1834 15.1702 10.6509C15.6005 9.90531 16.2461 9.26626 16.9992 8.94673C17.5372 8.62721 18.1827 8.5207 18.8282 8.5207C19.0434 8.5207 19.151 8.5207 19.3662 8.5207C20.2269 8.62721 20.8724 8.94673 21.518 9.47928C22.4863 10.2248 23.0242 11.3964 23.0242 12.6745C23.0242 15.0177 21.1952 16.8284 18.8282 16.8284Z" fill="white"/>
</svg>
