<svg width="24" height="24" viewBox="0 0 24 24" fill="none" xmlns="http://www.w3.org/2000/svg">
<path fill-rule="evenodd" clip-rule="evenodd" d="M20.6042 1.39021C19.7382 1.78312 9.97543 6.34082 2.02351 10.0341C1.39366 10.3485 1 10.9771 1 11.6057C1 12.2344 1.47239 12.7059 2.02351 12.7845C2.4959 12.863 7.21981 13.5703 7.21981 13.5703L8.55825 21.4284L9.26684 17.9708L8.24333 12.7845L17.8486 5.71217L9.97543 14.3561L12.731 17.4993C12.8885 17.6565 16.274 21.5855 16.5102 21.8213C16.9038 22.2142 17.5337 23 17.8486 23C18.3997 23 18.9509 22.2142 19.187 21.0355C19.4232 19.9353 20.9979 12.313 22.9662 2.17602C23.2024 1.07589 22.1789 0.604403 20.6042 1.39021Z" fill="#326CA5"/>
</svg>
