<svg width="26" height="20" viewBox="0 0 26 20" fill="none" xmlns="http://www.w3.org/2000/svg">
<path d="M18.1818 5.83333C18.9883 5.83333 19.1202 5.83333 20 5.83333C20.4167 5.83333 20.8333 5.41667 20.8333 5V4.16667L3.99316 4.18519C3.62659 4.18519 3.33333 3.7037 3.33333 3.33333C3.33333 2.96296 3.62659 2.50926 3.99316 2.50926H20.8333V2.07407C20.8333 1.62963 20.8333 1.66667 20.0269 1.66667C20.0269 1.66667 3.30279 1.66667 2.91667 1.66667C2.22631 1.66667 1.66667 2.22631 1.66667 2.91667V16.6667C1.66667 17.5871 2.41286 18.3333 3.33333 18.3333H20.0269C20.4668 18.3333 20.8333 17.963 20.8333 17.5185V15C20.8333 14.5556 20.3666 14.1667 20 14.1667C19.1202 14.1667 18.6926 14.1574 17.8861 14.1574C16.7131 14.1574 15.8333 13.2685 15.8333 12.0833V7.90741C15.8333 6.7963 17.0088 5.83333 18.1818 5.83333ZM22.3534 5.81481L23.7805 5.83333C24.8803 5.83333 25.8333 6.7963 25.8333 7.90741V12.0926C25.8333 13.2778 24.8803 14.1667 23.7805 14.1667H22.3534C22.4267 14.463 22.5 14.7037 22.5 15V17.9259C22.5 19.037 21.7742 20 20.6012 20H2.05279C0.953079 20 0 19.037 0 17.9259V2.07407C0 0.962963 0.953079 0 2.05279 0H20.6012C21.7742 0 22.5 0.944444 22.5 2.05556C22.5 3.24074 22.5 3.81481 22.5 5C22.5 5.2963 22.4267 5.59259 22.3534 5.81481ZM23.3602 7.51852C21.7473 7.51852 19.8729 7.5 18.3333 7.5C17.5 7.5 17.5 7.5 17.5 8.33333V11.6667C17.5 12.5 17.5 12.5 18.3065 12.5C19.846 12.5 21.7473 12.5 23.3602 12.5C23.8001 12.5 24.1667 11.7778 24.1667 11.3333V8.33333C24.1667 7.88889 23.8001 7.51852 23.3602 7.51852Z" fill="white"/>
<path d="M19.9613 8.33333C20.8915 8.33333 21.6667 9.10853 21.6667 10.0388C21.6667 10.969 20.8915 11.6667 19.9613 11.6667C19.031 11.6667 18.3333 10.969 18.3333 10.0388C18.3333 9.10853 19.031 8.33333 19.9613 8.33333ZM20 9.58333C19.845 9.58333 19.5833 9.76744 19.5833 10C19.5833 10.155 19.845 10.4167 20 10.4167C20.2326 10.4167 20.4167 10.155 20.4167 10C20.4167 9.76744 20.2326 9.58333 20 9.58333Z" fill="white"/>
</svg>
